<svg width="147" height="147" viewBox="0 0 147 147" fill="none" xmlns="http://www.w3.org/2000/svg">
<circle cx="73.5" cy="73.5" r="12.23" stroke="#4A4A52" stroke-width="2"/>
<path d="M46.04 73.5C46.04 77.8189 42.5389 81.32 38.22 81.32C33.9012 81.32 30.4 77.8189 30.4 73.5C30.4 69.1811 33.9012 65.68 38.22 65.68C42.5389 65.68 46.04 69.1811 46.04 73.5Z" stroke="#4A4A52" stroke-width="2"/>
<circle cx="73.5001" cy="108.78" r="7.82" stroke="#4A4A52" stroke-width="2"/>
<circle cx="108.78" cy="73.5" r="7.82" stroke="#4A4A52" stroke-width="2"/>
<path d="M81.3201 38.22C81.3201 42.5389 77.8189 46.04 73.5001 46.04C69.1812 46.04 65.6801 42.5389 65.6801 38.22C65.6801 33.9011 69.1812 30.4 73.5001 30.4C77.8189 30.4 81.3201 33.9011 81.3201 38.22Z" stroke="#4A4A52" stroke-width="2"/>
<circle cx="73.5" cy="73.5" r="46.04" stroke="#4A4A52" stroke-width="2"/>
<path d="M47.04 73.5H60.27M73.5 47.04V60.27M86.73 73.5H99.96M73.5 86.73V99.96" stroke="#4A4A52" stroke-width="2"/>
</svg>
