<svg width="129" height="129" viewBox="0 0 129 129" fill="none" xmlns="http://www.w3.org/2000/svg">
<path d="M92.1282 76.7251C92.1282 76.7251 46.6505 77.3437 37.6991 76.7251C28.7478 76.1064 24.6153 73.0183 23.0453 64.0163C22.6158 55.3977 25.1387 49.7189 35.0824 46.5415C30.8956 24.3014 65.9605 12.6516 75.9041 39.6575C81.2423 32.2357 92.2281 35.4508 93.1749 46.5417C109.399 49.1893 111.492 75.666 92.1282 76.7251Z" fill="white" stroke="#4A4A52" stroke-width="2"/>
<path d="M52.5 81.5V64.5M63 81.5V52.5M73 81.5V64.5M78 99V85.5H47.5C47.5 90.7721 47.5 93.7279 47.5 99H48M78 99H48M78 99H83.5V107M42.5 107V99H48" stroke="#4A4A52" stroke-width="2" stroke-linejoin="round"/>
<circle cx="52.5" cy="59.5" r="5.5" stroke="#4A4A52" stroke-width="2"/>
<circle cx="62.5" cy="47.5" r="5.5" stroke="#4A4A52" stroke-width="2"/>
<circle cx="73.5" cy="59.5" r="5.5" stroke="#4A4A52" stroke-width="2"/>
</svg>
