<svg width="81" height="93" viewBox="0 0 81 93" fill="none" xmlns="http://www.w3.org/2000/svg">
<path d="M40.5 93C40.1622 93.0023 39.8296 92.9167 39.5357 92.7517L24.1071 83.9687L26.0357 80.6656L38.4943 87.7874V73.7537H42.3514V87.8065L54.9643 80.6656L56.8929 83.9687L41.4643 92.7517C41.1704 92.9167 40.8378 93.0023 40.5 93ZM68.4643 77.0187C68.1264 77.021 67.7939 76.9354 67.5 76.7705L56.8929 70.6988C56.6014 70.5322 56.359 70.293 56.1898 70.0049C56.0207 69.7168 55.9306 69.3899 55.9286 69.0567V56.9324C55.9272 56.5959 56.0157 56.2651 56.185 55.9734C56.3544 55.6817 56.5985 55.4395 56.8929 55.2713L67.5 49.2186C67.7932 49.051 68.1257 48.9628 68.4643 48.9628C68.8028 48.9628 69.1354 49.051 69.4286 49.2186L80.0357 55.2713C80.33 55.4395 80.5742 55.6817 80.7435 55.9734C80.9129 56.2651 81.0013 56.5959 81 56.9324V69.0567C80.998 69.3899 80.9079 69.7168 80.7387 70.0049C80.5695 70.293 80.3272 70.5322 80.0357 70.6988L69.4286 76.7705C69.1346 76.9354 68.8021 77.021 68.4643 77.0187ZM59.7857 67.9493L68.4643 72.9136L77.1428 67.9493V58.0207L68.4643 53.0755L59.7857 58.0207V67.9493ZM12.5357 77.0187C12.1979 77.021 11.8654 76.9354 11.5714 76.7705L0.964301 70.6988C0.67282 70.5322 0.430455 70.293 0.261289 70.0049C0.0921226 69.7168 0.0020467 69.3899 1.52026e-05 69.0567V56.9324C-0.00133396 56.5959 0.0871387 56.2651 0.256474 55.9734C0.425808 55.6817 0.669992 55.4395 0.964301 55.2713L11.5522 49.2186C11.8453 49.051 12.1779 48.9628 12.5164 48.9628C12.855 48.9628 13.1875 49.051 13.4807 49.2186L24.1071 55.2713C24.4015 55.4395 24.6456 55.6817 24.815 55.9734C24.9843 56.2651 25.0728 56.5959 25.0714 56.9324V69.0567C25.0694 69.3899 24.9793 69.7168 24.8102 70.0049C24.641 70.293 24.3986 70.5322 24.1071 70.6988L13.5 76.7705C13.2061 76.9354 12.8736 77.021 12.5357 77.0187ZM3.87644 67.9493L12.5357 72.9136L21.2143 67.9493V58.0207L12.5357 53.0755L3.87644 58.0207V67.9493ZM30.8764 64.5889C30.5386 64.5912 30.2061 64.5056 29.9121 64.3407C29.6178 64.1724 29.3737 63.9302 29.2043 63.6385C29.035 63.3468 28.9465 63.016 28.9479 62.6795V31.1944C28.9499 30.8612 29.04 30.5343 29.2091 30.2462C29.3783 29.9582 29.6207 29.7189 29.9121 29.5523C30.2053 29.3848 30.5379 29.2965 30.8764 29.2965C31.215 29.2965 31.5475 29.3848 31.8407 29.5523L59.3614 45.2854C59.6557 45.4536 59.8999 45.6958 60.0693 45.9875C60.2386 46.2792 60.3271 46.61 60.3257 46.9465C60.3237 47.2797 60.2336 47.6066 60.0644 47.8946C59.8953 48.1827 59.6529 48.4219 59.3614 48.5885L31.8214 64.3407C31.5275 64.5056 31.195 64.5912 30.8571 64.5889H30.8764ZM32.7857 34.593V59.4145L54.54 46.9847L32.7857 34.593ZM81 43.2805H77.1428V28.2731L64.8386 35.2804L62.91 31.9772L75.2143 25.0463L62.6786 17.8289L64.6071 14.5258L80.0357 23.3088C80.3272 23.4754 80.5695 23.7146 80.7387 24.0027C80.9079 24.2907 80.998 24.6176 81 24.9508V43.2805ZM3.85716 43.2805H1.52026e-05V25.0463C0.0020467 24.7131 0.0921226 24.3862 0.261289 24.0981C0.430455 23.8101 0.67282 23.5708 0.964301 23.4042L16.3929 14.6212L18.3214 17.9244L5.80501 25.0463L18.09 32.0727L16.1614 35.3758L3.85716 28.254V43.2805ZM40.5 29.1514C40.1586 29.1421 39.8259 29.0433 39.5357 28.865L28.9286 22.7551C28.6343 22.5868 28.3901 22.3446 28.2207 22.0529C28.0514 21.7612 27.9629 21.4304 27.9643 21.0939V8.96957C27.9663 8.63636 28.0564 8.30948 28.2256 8.02142C28.3947 7.73335 28.6371 7.49413 28.9286 7.32753L39.5357 1.2558C39.8289 1.08822 40.1615 1 40.5 1C40.8385 1 41.1711 1.08822 41.4643 1.2558L52.0714 7.32753C52.3629 7.49413 52.6053 7.73335 52.7744 8.02142C52.9436 8.30948 53.0337 8.63636 53.0357 8.96957V21.0939C53.0371 21.4304 52.9486 21.7612 52.7793 22.0529C52.6099 22.3446 52.3657 22.5868 52.0714 22.7551L41.4643 28.865C41.1667 29.0166 40.8344 29.089 40.5 29.075V29.1514ZM31.8214 20.0056L40.5 25.0463L49.1786 20.0056V10.077L40.5 5.11269L31.8214 10.077V20.0056Z" fill="white"/>
<path d="M16.1999 33.1659L1.24609 24.7632M1.24609 24.7632V42.2689M1.24609 24.7632L16.1999 16.3605" stroke="#4A4A52" stroke-width="2"/>
<path d="M64.7999 33.1659L79.7538 24.7632M79.7538 24.7632V42.2689M79.7538 24.7632L64.7999 16.3605" stroke="#4A4A52" stroke-width="2"/>
<path d="M40.2417 74.3459V91.6182M40.2417 91.6182L54.8308 82.9821M40.2417 91.6182L24.9231 82.9821" stroke="#4A4A52" stroke-width="2"/>
<path d="M31.1538 62.0086V32.399L57.323 47.2038L31.1538 62.0086Z" stroke="#4A4A52" stroke-width="2"/>
<path d="M52.3385 8.15786L40.7613 1.55573L29.9077 8.15786V22.0957L40.7613 28.6978L52.3385 21.3621V8.15786Z" stroke="#4A4A52" stroke-width="2"/>
<path d="M23.6769 56.2734L12.0997 49.6713L1.24609 56.2734V70.2113L12.0997 76.8134L23.6769 69.4777V56.2734Z" stroke="#4A4A52" stroke-width="2"/>
<path d="M79.7538 56.2734L68.1766 49.6713L57.323 56.2734V70.2113L68.1766 76.8134L79.7538 69.4777V56.2734Z" stroke="#4A4A52" stroke-width="2"/>
</svg>
