<svg width="152" height="75" viewBox="0 0 152 75" fill="none" xmlns="http://www.w3.org/2000/svg">
<path d="M103.404 63.931H83.2116M33.0914 58.1773H103.404M83.2116 63.931H49.0784C47.4233 63.931 45.8755 64.75 44.9445 66.1183L41.07 71.8127C40.139 73.181 38.5912 74 36.9362 74H25.8318C23.0704 74 20.8318 71.7614 20.8318 69V65.3044C20.8318 64.4055 21.0741 63.5232 21.5333 62.7503L25.8995 55.4024C26.3587 54.6295 26.601 53.7472 26.601 52.8483V20.0246C26.601 17.2632 28.8396 15.0246 31.601 15.0246H104.173C106.935 15.0246 109.173 17.2632 109.173 20.0246V69C109.173 71.7614 106.935 74 104.173 74H92.7082C91.0531 74 89.5053 73.181 88.5743 71.8127L83.2116 63.931Z" stroke="#55555D" stroke-width="2"/>
<path d="M109.894 26.1724H115.664V50.9852H109.894" stroke="#55555D" stroke-width="2"/>
<path d="M26.601 26.1724H20.8317V39.4778H26.601M14.7019 24.3744V40.9163L1 46.3103V19.6995L14.7019 24.3744Z" stroke="#55555D" stroke-width="2"/>
<path d="M6.40869 21.8571V44.1527" stroke="#55555D" stroke-width="2"/>
<path d="M36.3365 14.665L40.8912 6.03448M74.1971 14.665L69.6425 6.03448M69.6425 6.03448L66.9856 1H43.5481L40.8912 6.03448M69.6425 6.03448H40.8912M94.0289 14.665L101.601 6.03448H104.846M144.87 11.9006L151 9.99015V66.8079L144.87 64.9739M144.87 11.9006L122.154 18.9803V58.1773L144.87 64.9739M144.87 11.9006V64.9739" stroke="#55555D" stroke-width="2"/>
<rect x="105.486" y="4.15764" width="29.7308" height="3.75369" rx="1.87685" stroke="#55555D" stroke-width="2"/>
<rect x="33.0913" y="20.4187" width="52.6442" height="25.8916" rx="5" stroke="#55555D" stroke-width="2"/>
<ellipse cx="41.3846" cy="28.6897" rx="3.96634" ry="3.95566" stroke="#55555D" stroke-width="2"/>
</svg>
