<svg width="95" height="95" viewBox="0 0 95 95" fill="none" xmlns="http://www.w3.org/2000/svg">
<path d="M81 36L69 48L81 60" stroke="#4A4A52" stroke-width="2"/>
<path d="M59 23L47 11L35 23" stroke="#4A4A52" stroke-width="2"/>
<path d="M14 60L26 48L14 36" stroke="#4A4A52" stroke-width="2"/>
<path d="M35 73L47 85L59 73" stroke="#4A4A52" stroke-width="2"/>
<circle cx="47.5" cy="47.5" r="46.5" stroke="#4A4A52" stroke-width="2"/>
<path d="M11 48H32M47 53V85M63.5 48H83M47 12V44" stroke="#4A4A52" stroke-width="2"/>
<path d="M62.6463 58.8547C62.6463 58.8547 38.5376 59.1816 33.7923 58.8547C29.047 58.5279 26.8563 56.8965 26.024 52.1407C25.7963 47.5875 27.1338 44.5873 32.4051 42.9087C30.1856 31.1592 48.7742 25.0046 54.0456 39.2719C56.8754 35.351 62.6993 37.0495 63.2011 42.9088C71.8018 44.3076 72.9116 58.2952 62.6463 58.8547Z" fill="white" stroke="#4A4A52" stroke-width="2"/>
</svg>
