<svg width="143" height="116" viewBox="0 0 143 116" fill="none" xmlns="http://www.w3.org/2000/svg">
<g clip-path="url(#clip0)">
<path d="M3.74269 1.87097C3.24638 1.87097 2.77039 2.06809 2.41945 2.41896C2.0685 2.76984 1.87135 3.24572 1.87135 3.74194V112.258C1.87135 112.754 2.0685 113.23 2.41945 113.581C2.77039 113.932 3.24638 114.129 3.74269 114.129H138.48C138.976 114.129 139.452 113.932 139.803 113.581C140.154 113.23 140.351 112.754 140.351 112.258V3.74194C140.351 3.24572 140.154 2.76984 139.803 2.41896C139.452 2.06809 138.976 1.87097 138.48 1.87097H3.74269ZM3.74269 0H138.48C139.472 0 140.424 0.394239 141.126 1.09599C141.828 1.79774 142.222 2.74951 142.222 3.74194V112.258C142.222 113.25 141.828 114.202 141.126 114.904C140.424 115.606 139.472 116 138.48 116H3.74269C2.75007 116 1.7981 115.606 1.09621 114.904C0.394318 114.202 0 113.25 0 112.258V3.74194C0 2.74951 0.394318 1.79774 1.09621 1.09599C1.7981 0.394239 2.75007 0 3.74269 0V0Z" fill="#55555D"/>
<path d="M0 22.4516V20.5806H142.222V22.4516H0ZM10.2924 14.9677C8.82152 14.9677 7.48538 13.7647 7.48538 12.1613C7.48538 10.5579 8.68865 9.35483 10.2924 9.35483C11.8961 9.35483 13.0994 10.5579 13.0994 12.1613C13.0994 13.7647 11.8961 14.9677 10.2924 14.9677ZM19.9111 14.9677C18.3055 14.9677 17.1041 13.7647 17.1041 12.1613C17.1041 10.5579 18.3036 9.35483 19.9111 9.35483C21.513 9.35483 22.7181 10.5579 22.7181 12.1613C22.7181 13.7647 21.5111 14.9677 19.9111 14.9677ZM29.5261 14.9677C27.9223 14.9677 26.7191 13.7647 26.7191 12.1613C26.7191 10.5579 27.9223 9.35483 29.5261 9.35483C31.1317 9.35483 32.3331 10.5579 32.3331 12.1613C32.3331 13.7647 31.1317 14.9677 29.5261 14.9677Z" fill="#55555D"/>
<path d="M23.34 74.5284C22.5482 74.5284 21.9248 74.7799 21.4699 75.2829C21.015 75.7859 20.7875 76.4747 20.7875 77.3492C20.7875 78.2437 21.002 78.9382 21.431 79.4327C21.8601 79.9271 22.4733 80.1743 23.2709 80.1743C23.8007 80.1743 24.2873 80.1071 24.7307 79.9728V80.3586C24.3132 80.5044 23.7921 80.5773 23.1673 80.5773C22.2804 80.5773 21.5822 80.2929 21.0726 79.7242C20.5629 79.1554 20.3081 78.3609 20.3081 77.3406C20.3081 76.7033 20.429 76.1417 20.6709 75.6559C20.9156 75.17 21.2655 74.7956 21.7204 74.5327C22.1782 74.2669 22.7094 74.134 23.3141 74.134C23.9303 74.134 24.4817 74.2483 24.9683 74.4769L24.7912 74.8713C24.3305 74.6427 23.8468 74.5284 23.34 74.5284Z" fill="black"/>
<path d="M29.9135 78.1551C29.9135 78.9154 29.7278 79.5098 29.3563 79.9385C28.9849 80.3643 28.4724 80.5773 27.8188 80.5773C27.407 80.5773 27.0442 80.4787 26.7304 80.2815C26.4166 80.0843 26.1761 79.8013 26.0091 79.4327C25.8421 79.064 25.7586 78.6381 25.7586 78.1551C25.7586 77.3949 25.9443 76.8033 26.3158 76.3803C26.6872 75.9545 27.1968 75.7416 27.8447 75.7416C28.4896 75.7416 28.995 75.9574 29.3606 76.3889C29.7292 76.8176 29.9135 77.4064 29.9135 78.1551ZM26.2078 78.1551C26.2078 78.7953 26.3489 79.2955 26.6311 79.6556C26.9161 80.0128 27.3178 80.1914 27.836 80.1914C28.3543 80.1914 28.7545 80.0128 29.0367 79.6556C29.3218 79.2955 29.4643 78.7953 29.4643 78.1551C29.4643 77.5121 29.3203 77.0134 29.0324 76.659C28.7473 76.3046 28.3457 76.1274 27.8274 76.1274C27.3091 76.1274 26.9089 76.3046 26.6267 76.659C26.3474 77.0105 26.2078 77.5092 26.2078 78.1551Z" fill="black"/>
<path d="M34.4872 80.4915V77.4692C34.4872 77.0005 34.3879 76.6604 34.1892 76.4489C33.9906 76.2346 33.6825 76.1274 33.265 76.1274C32.7035 76.1274 32.2918 76.2689 32.0298 76.5518C31.7706 76.8319 31.641 77.2878 31.641 77.9194V80.4915H31.2135V75.8316H31.5763L31.6583 76.4704H31.6842C31.9894 75.9845 32.5322 75.7416 33.3125 75.7416C34.3778 75.7416 34.9105 76.3089 34.9105 77.4435V80.4915H34.4872Z" fill="black"/>
<path d="M37.6703 80.2C37.941 80.2 38.1771 80.1772 38.3786 80.1314V80.4744C38.1713 80.543 37.9323 80.5773 37.6617 80.5773C37.2471 80.5773 36.9404 80.4672 36.7417 80.2472C36.5459 80.0271 36.448 79.6813 36.448 79.2097V76.2003H35.7527V75.9517L36.448 75.7587L36.664 74.7042H36.8843V75.8316H38.262V76.2003H36.8843V79.1497C36.8843 79.507 36.9476 79.7713 37.0743 79.9428C37.201 80.1143 37.3997 80.2 37.6703 80.2Z" fill="black"/>
<path d="M41.2421 75.7416C41.4408 75.7416 41.6538 75.7616 41.8813 75.8016L41.7992 76.2089C41.6034 76.1603 41.4005 76.136 41.1903 76.136C40.79 76.136 40.4618 76.3046 40.2055 76.6419C39.9493 76.9791 39.8212 77.4049 39.8212 77.9194V80.4915H39.3936V75.8316H39.7564L39.7996 76.6719H39.8298C40.0227 76.3289 40.2286 76.0888 40.4474 75.9517C40.6662 75.8116 40.9311 75.7416 41.2421 75.7416Z" fill="black"/>
<path d="M46.7228 78.1551C46.7228 78.9154 46.5371 79.5098 46.1657 79.9385C45.7943 80.3643 45.2818 80.5773 44.6282 80.5773C44.2164 80.5773 43.8536 80.4787 43.5398 80.2815C43.2259 80.0843 42.9855 79.8013 42.8185 79.4327C42.6515 79.064 42.568 78.6381 42.568 78.1551C42.568 77.3949 42.7537 76.8033 43.1252 76.3803C43.4966 75.9545 44.0062 75.7416 44.6541 75.7416C45.299 75.7416 45.8043 75.9574 46.17 76.3889C46.5386 76.8176 46.7228 77.4064 46.7228 78.1551ZM43.0172 78.1551C43.0172 78.7953 43.1583 79.2955 43.4404 79.6556C43.7255 80.0128 44.1272 80.1914 44.6454 80.1914C45.1637 80.1914 45.5639 80.0128 45.8461 79.6556C46.1311 79.2955 46.2737 78.7953 46.2737 78.1551C46.2737 77.5121 46.1297 77.0134 45.8418 76.659C45.5567 76.3046 45.1551 76.1274 44.6368 76.1274C44.1185 76.1274 43.7183 76.3046 43.4361 76.659C43.1568 77.0105 43.0172 77.5092 43.0172 78.1551Z" fill="black"/>
<path d="M48.4504 80.4915H48.0229V73.821H48.4504V80.4915Z" fill="black"/>
<path d="M55.175 80.4915L55.0671 79.7542H55.0325C54.7964 80.0543 54.5531 80.2672 54.3026 80.3929C54.055 80.5158 53.7613 80.5773 53.4216 80.5773C52.9609 80.5773 52.6024 80.4601 52.3461 80.2257C52.0899 79.9914 51.9617 79.667 51.9617 79.2526C51.9617 78.7982 52.1518 78.4452 52.5318 78.1937C52.9148 77.9422 53.4676 77.8093 54.1903 77.795L55.0843 77.7693V77.4607C55.0843 77.0177 54.9936 76.6833 54.8123 76.4575C54.6309 76.2317 54.3386 76.1188 53.9355 76.1188C53.5007 76.1188 53.0501 76.2389 52.5837 76.4789L52.4239 76.1103C52.9393 75.8702 53.4489 75.7502 53.9528 75.7502C54.4682 75.7502 54.8526 75.8831 55.1059 76.1489C55.3622 76.4146 55.4903 76.829 55.4903 77.3921V80.4915H55.175ZM53.4475 80.1914C53.9485 80.1914 54.3429 80.05 54.6309 79.767C54.9217 79.4812 55.0671 79.0854 55.0671 78.5796V78.1208L54.2465 78.1551C53.5871 78.1866 53.1163 78.2895 52.8342 78.4638C52.5549 78.6353 52.4152 78.9039 52.4152 79.2697C52.4152 79.5613 52.5045 79.7885 52.683 79.9514C52.8644 80.1114 53.1192 80.1914 53.4475 80.1914Z" fill="black"/>
<path d="M60.2887 80.4915V77.4692C60.2887 77.0005 60.1894 76.6604 59.9907 76.4489C59.792 76.2346 59.4839 76.1274 59.0664 76.1274C58.505 76.1274 58.0932 76.2689 57.8312 76.5518C57.5721 76.8319 57.4425 77.2878 57.4425 77.9194V80.4915H57.0149V75.8316H57.3777L57.4598 76.4704H57.4857C57.7909 75.9845 58.3336 75.7416 59.1139 75.7416C60.1793 75.7416 60.7119 76.3089 60.7119 77.4435V80.4915H60.2887Z" fill="black"/>
<path d="M63.9512 75.7416C64.2909 75.7416 64.5846 75.803 64.8322 75.9259C65.0799 76.0488 65.3016 76.2589 65.4974 76.5561H65.5233C65.506 76.196 65.4974 75.8431 65.4974 75.4972V73.821H65.9206V80.4915H65.6399L65.5319 79.7799H65.4974C65.1403 80.3115 64.6278 80.5773 63.9598 80.5773C63.312 80.5773 62.8167 80.3772 62.4741 79.9771C62.1314 79.577 61.9601 78.994 61.9601 78.228C61.9601 77.4221 62.13 76.8062 62.4698 76.3803C62.8095 75.9545 63.3033 75.7416 63.9512 75.7416ZM63.9512 76.1274C63.4387 76.1274 63.0528 76.306 62.7937 76.6633C62.5374 77.0205 62.4093 77.5393 62.4093 78.2194C62.4093 79.5398 62.9261 80.2 63.9598 80.2C64.4896 80.2 64.8783 80.0471 65.1259 79.7413C65.3735 79.4355 65.4974 78.9311 65.4974 78.228V78.1551C65.4974 77.4349 65.375 76.9176 65.1302 76.6033C64.8884 76.286 64.4954 76.1274 63.9512 76.1274Z" fill="black"/>
<path d="M72.6841 80.4915L70.3303 74.7042H70.2957C70.3187 75.0585 70.3303 75.4215 70.3303 75.793V80.4915H69.907V74.224H70.5894L72.8266 79.737H72.8525L75.0898 74.224H75.7549V80.4915H75.31V75.7416C75.31 75.4101 75.3273 75.0671 75.3619 74.7127H75.3273L72.9648 80.4915H72.6841Z" fill="black"/>
<path d="M81.3177 78.1551C81.3177 78.9154 81.132 79.5098 80.7605 79.9385C80.3891 80.3643 79.8766 80.5773 79.223 80.5773C78.8113 80.5773 78.4485 80.4787 78.1346 80.2815C77.8208 80.0843 77.5804 79.8013 77.4134 79.4327C77.2464 79.064 77.1629 78.6381 77.1629 78.1551C77.1629 77.3949 77.3486 76.8033 77.72 76.3803C78.0914 75.9545 78.6011 75.7416 79.2489 75.7416C79.8939 75.7416 80.3992 75.9574 80.7649 76.3889C81.1334 76.8176 81.3177 77.4064 81.3177 78.1551ZM77.612 78.1551C77.612 78.7953 77.7531 79.2955 78.0353 79.6556C78.3203 80.0128 78.722 80.1914 79.2403 80.1914C79.7585 80.1914 80.1588 80.0128 80.4409 79.6556C80.726 79.2955 80.8685 78.7953 80.8685 78.1551C80.8685 77.5121 80.7246 77.0134 80.4366 76.659C80.1516 76.3046 79.7499 76.1274 79.2316 76.1274C78.7134 76.1274 78.3131 76.3046 78.031 76.659C77.7517 77.0105 77.612 77.5092 77.612 78.1551Z" fill="black"/>
<path d="M85.8915 80.4915V77.4692C85.8915 77.0005 85.7921 76.6604 85.5935 76.4489C85.3948 76.2346 85.0867 76.1274 84.6692 76.1274C84.1077 76.1274 83.696 76.2689 83.434 76.5518C83.1748 76.8319 83.0453 77.2878 83.0453 77.9194V80.4915H82.6177V75.8316H82.9805L83.0626 76.4704H83.0885C83.3937 75.9845 83.9364 75.7416 84.7167 75.7416C85.7821 75.7416 86.3147 76.3089 86.3147 77.4435V80.4915H85.8915Z" fill="black"/>
<path d="M88.2626 80.4915H87.835V75.8316H88.2626V80.4915ZM87.7745 74.537C87.7745 74.2626 87.8652 74.1254 88.0466 74.1254C88.1359 74.1254 88.205 74.1611 88.2539 74.2326C88.3058 74.304 88.3317 74.4055 88.3317 74.537C88.3317 74.6656 88.3058 74.767 88.2539 74.8413C88.205 74.9156 88.1359 74.9528 88.0466 74.9528C87.8652 74.9528 87.7745 74.8142 87.7745 74.537Z" fill="black"/>
<path d="M91.0785 80.2C91.3492 80.2 91.5853 80.1772 91.7868 80.1314V80.4744C91.5795 80.543 91.3406 80.5773 91.0699 80.5773C90.6553 80.5773 90.3486 80.4672 90.15 80.2472C89.9542 80.0271 89.8563 79.6813 89.8563 79.2097V76.2003H89.1609V75.9517L89.8563 75.7587L90.0722 74.7042H90.2925V75.8316H91.6702V76.2003H90.2925V79.1497C90.2925 79.507 90.3558 79.7713 90.4825 79.9428C90.6092 80.1143 90.8079 80.2 91.0785 80.2Z" fill="black"/>
<path d="M96.6845 78.1551C96.6845 78.9154 96.4988 79.5098 96.1274 79.9385C95.756 80.3643 95.2435 80.5773 94.5899 80.5773C94.1781 80.5773 93.8153 80.4787 93.5015 80.2815C93.1876 80.0843 92.9472 79.8013 92.7802 79.4327C92.6132 79.064 92.5297 78.6381 92.5297 78.1551C92.5297 77.3949 92.7154 76.8033 93.0869 76.3803C93.4583 75.9545 93.9679 75.7416 94.6158 75.7416C95.2607 75.7416 95.766 75.9574 96.1317 76.3889C96.5003 76.8176 96.6845 77.4064 96.6845 78.1551ZM92.9789 78.1551C92.9789 78.7953 93.12 79.2955 93.4021 79.6556C93.6872 80.0128 94.0889 80.1914 94.6071 80.1914C95.1254 80.1914 95.5256 80.0128 95.8078 79.6556C96.0928 79.2955 96.2354 78.7953 96.2354 78.1551C96.2354 77.5121 96.0914 77.0134 95.8035 76.659C95.5184 76.3046 95.1168 76.1274 94.5985 76.1274C94.0802 76.1274 93.68 76.3046 93.3978 76.659C93.1185 77.0105 92.9789 77.5092 92.9789 78.1551Z" fill="black"/>
<path d="M99.8331 75.7416C100.032 75.7416 100.245 75.7616 100.472 75.8016L100.39 76.2089C100.194 76.1603 99.9914 76.136 99.7812 76.136C99.381 76.136 99.0528 76.3046 98.7965 76.6419C98.5403 76.9791 98.4121 77.4049 98.4121 77.9194V80.4915H97.9846V75.8316H98.3473L98.3905 76.6719H98.4208C98.6137 76.3289 98.8195 76.0888 99.0384 75.9517C99.2572 75.8116 99.5221 75.7416 99.8331 75.7416Z" fill="black"/>
<path d="M101.859 80.4915H101.431V75.8316H101.859V80.4915ZM101.371 74.537C101.371 74.2626 101.461 74.1254 101.643 74.1254C101.732 74.1254 101.801 74.1611 101.85 74.2326C101.902 74.304 101.928 74.4055 101.928 74.537C101.928 74.6656 101.902 74.767 101.85 74.8413C101.801 74.9156 101.732 74.9528 101.643 74.9528C101.461 74.9528 101.371 74.8142 101.371 74.537Z" fill="black"/>
<path d="M106.709 80.4915V77.4692C106.709 77.0005 106.61 76.6604 106.411 76.4489C106.212 76.2346 105.904 76.1274 105.487 76.1274C104.925 76.1274 104.513 76.2689 104.251 76.5518C103.992 76.8319 103.863 77.2878 103.863 77.9194V80.4915H103.435V75.8316H103.798L103.88 76.4704H103.906C104.211 75.9845 104.754 75.7416 105.534 75.7416C106.599 75.7416 107.132 76.3089 107.132 77.4435V80.4915H106.709Z" fill="black"/>
<path d="M112.315 75.8316V76.1274L111.343 76.1874C111.602 76.5075 111.732 76.8591 111.732 77.242C111.732 77.6907 111.581 78.0551 111.278 78.3352C110.979 78.6124 110.576 78.751 110.069 78.751C109.856 78.751 109.706 78.7425 109.62 78.7253C109.45 78.8139 109.32 78.9182 109.231 79.0383C109.142 79.1583 109.097 79.2855 109.097 79.4198C109.097 79.5684 109.153 79.677 109.266 79.7456C109.381 79.8142 109.572 79.8485 109.84 79.8485H110.661C111.17 79.8485 111.56 79.9514 111.831 80.1571C112.102 80.3601 112.237 80.6616 112.237 81.0617C112.237 81.5533 112.036 81.9319 111.632 82.1977C111.232 82.4664 110.661 82.6007 109.918 82.6007C109.328 82.6007 108.87 82.4878 108.544 82.262C108.222 82.0363 108.061 81.7219 108.061 81.3189C108.061 80.9988 108.16 80.733 108.359 80.5215C108.56 80.31 108.832 80.1657 109.175 80.0886C109.034 80.0285 108.92 79.9442 108.834 79.8356C108.75 79.7242 108.709 79.597 108.709 79.4541C108.709 79.1426 108.909 78.8682 109.309 78.631C109.035 78.5195 108.822 78.3452 108.67 78.108C108.517 77.8679 108.441 77.5936 108.441 77.2849C108.441 76.819 108.589 76.4461 108.886 76.166C109.185 75.8831 109.588 75.7416 110.095 75.7416C110.403 75.7416 110.642 75.7716 110.812 75.8316H112.315ZM108.514 81.2803C108.514 81.9205 108.994 82.2406 109.952 82.2406C111.185 82.2406 111.801 81.8505 111.801 81.0703C111.801 80.7902 111.704 80.5873 111.512 80.4615C111.319 80.3358 111.006 80.2729 110.574 80.2729H109.806C108.945 80.2729 108.514 80.6087 108.514 81.2803ZM108.873 77.2849C108.873 77.645 108.982 77.9251 109.201 78.1251C109.423 78.3223 109.718 78.4209 110.086 78.4209C110.478 78.4209 110.777 78.3223 110.985 78.1251C111.195 77.9279 111.3 77.6421 111.3 77.2677C111.3 76.8705 111.192 76.5733 110.976 76.3761C110.763 76.176 110.463 76.076 110.078 76.076C109.703 76.076 109.408 76.1832 109.192 76.3975C108.979 76.609 108.873 76.9048 108.873 77.2849Z" fill="black"/>
<path d="M125.063 69.752C124.982 69.165 124.881 68.5577 124.881 68.0111C124.881 67.4646 124.922 66.8573 125.063 66.2297C125.687 66.1488 126.352 66.0678 126.916 66.0678C127.54 66.0678 128.145 66.1083 128.809 66.2297C128.89 66.8573 128.991 67.4241 128.991 67.9706C128.991 68.5577 128.95 69.165 128.809 69.752C128.145 69.833 127.52 69.914 126.956 69.914C126.332 69.8735 125.727 69.833 125.063 69.752Z" fill="#57A0F8"/>
<path d="M37.2664 53.4895C37.77 53.3883 38.2534 53.3275 38.7167 53.3073C39.18 53.2871 39.5628 53.2668 39.8649 53.2668C40.3081 53.2668 40.7513 53.2871 41.1542 53.3073C41.5772 53.3275 41.9801 53.3883 42.3628 53.4692L45.1226 65.3923L48.3255 53.4692C49.0104 53.3478 49.7759 53.2871 50.5816 53.2871C51.1658 53.3073 51.6291 53.3275 52.0119 53.3478C52.3946 53.368 52.7169 53.4085 53.0191 53.4692L56.1414 65.1697L58.881 53.4692C59.2637 53.4085 59.6062 53.368 59.9486 53.3275C60.2911 53.2871 60.6537 53.2871 61.0767 53.2871C61.3789 53.2871 61.7616 53.3073 62.1846 53.3275C62.6077 53.3478 63.0911 53.4085 63.635 53.5097L58.2767 69.6029C57.8738 69.6636 57.4508 69.7041 56.9875 69.7243C56.5241 69.7446 56.1414 69.7648 55.8392 69.7648C55.4968 69.7648 55.1342 69.7446 54.7313 69.7243C54.3284 69.7041 53.9255 69.6434 53.5428 69.5624L50.4205 58.8944L47.1974 69.6029C46.7744 69.6636 46.3312 69.7041 45.888 69.7243C45.4247 69.7446 45.042 69.7648 44.7398 69.7648C44.4377 69.7648 44.0751 69.7446 43.652 69.7243C43.2492 69.7041 42.8463 69.6434 42.4635 69.5624L37.2664 53.4895Z" fill="#57A0F8"/>
<path d="M40.3687 69.5624C39.8651 69.6636 39.3816 69.7243 38.9183 69.7446C38.455 69.7648 38.0722 69.7851 37.7701 69.7851C37.3269 69.7851 36.8837 69.7648 36.4808 69.7446C36.0578 69.7243 35.6549 69.6636 35.2722 69.5826L32.5124 57.6798L29.3095 69.6029C28.6246 69.7243 27.8592 69.7851 27.0534 69.7851C26.4692 69.7648 26.0059 69.7446 25.6232 69.7243C25.2404 69.7041 24.9181 69.6636 24.616 69.6029L21.4936 57.9025L18.754 69.6029C18.3713 69.6636 18.0288 69.7041 17.6864 69.7446C17.3439 69.7851 16.9813 69.7851 16.5583 69.7851C16.2561 69.7851 15.8734 69.7648 15.4504 69.7446C15.0274 69.7243 14.5439 69.6636 14 69.5624L19.3583 53.4692C19.7612 53.4085 20.1842 53.368 20.6476 53.3478C21.1109 53.3275 21.4936 53.3073 21.7958 53.3073C22.1382 53.3073 22.5008 53.3275 22.9037 53.3478C23.3066 53.368 23.7095 53.4288 24.0922 53.5097L27.2145 64.1778L30.4376 53.4692C30.8606 53.4085 31.3038 53.368 31.747 53.3478C32.2103 53.3275 32.593 53.3073 32.8952 53.3073C33.1973 53.3073 33.5599 53.3275 33.983 53.3478C34.3859 53.368 34.7887 53.4288 35.1715 53.5097L40.3687 69.5624Z" fill="#57A0F8"/>
<path d="M72.8525 56.3266C71.5568 56.3266 70.5536 56.8117 69.8428 57.7817C69.1321 58.7445 68.7767 60.0893 68.7767 61.8164C68.7767 65.4101 70.1353 67.2069 72.8525 67.2069C73.9927 67.2069 75.3736 66.924 76.995 66.3581V69.2242C75.6623 69.7754 74.1741 70.051 72.5305 70.051C70.1686 70.051 68.362 69.3418 67.1108 67.9234C65.8595 66.4977 65.2339 64.4547 65.2339 61.7943C65.2339 60.1187 65.5411 58.6526 66.1557 57.3959C66.7702 56.1319 67.6513 55.1655 68.7989 54.4967C69.9539 53.8206 71.3051 53.4826 72.8525 53.4826C74.4296 53.4826 76.014 53.861 77.6059 54.618L76.4953 57.3959C75.8881 57.1093 75.2773 56.8594 74.6628 56.6463C74.0483 56.4332 73.4448 56.3266 72.8525 56.3266Z" fill="#55555D"/>
<path d="M95.1976 61.7502C95.1976 64.4179 94.5312 66.4683 93.1985 67.9014C91.8658 69.3344 89.9556 70.051 87.4679 70.051C84.9802 70.051 83.0699 69.3344 81.7372 67.9014C80.4045 66.4683 79.7382 64.4106 79.7382 61.7282C79.7382 59.0458 80.4045 56.9991 81.7372 55.5881C83.0774 54.1697 84.995 53.4605 87.4901 53.4605C89.9852 53.4605 91.8917 54.1734 93.2096 55.5991C94.5349 57.0248 95.1976 59.0752 95.1976 61.7502ZM83.3476 61.7502C83.3476 63.5508 83.6919 64.9066 84.3804 65.8179C85.069 66.7292 86.0982 67.1849 87.4679 67.1849C90.2147 67.1849 91.5882 65.3733 91.5882 61.7502C91.5882 58.1198 90.2221 56.3046 87.4901 56.3046C86.1204 56.3046 85.0875 56.7639 84.3916 57.6825C83.6956 58.5938 83.3476 59.9497 83.3476 61.7502Z" fill="#55555D"/>
<path d="M102.005 60.8683H103.116C104.204 60.8683 105.008 60.6883 105.526 60.3282C106.044 59.9681 106.303 59.4022 106.303 58.6306C106.303 57.8663 106.037 57.3224 105.504 56.9991C104.978 56.6757 104.16 56.514 103.049 56.514H102.005V60.8683ZM102.005 63.6463V69.8305H98.5627V53.7141H103.294C105.5 53.7141 107.133 54.1146 108.191 54.9156C109.25 55.7093 109.78 56.9182 109.78 58.5424C109.78 59.4904 109.517 60.3355 108.991 61.0778C108.465 61.8127 107.721 62.3896 106.759 62.8085C109.202 66.4316 110.794 68.7722 111.534 69.8305H107.714L103.838 63.6463H102.005Z" fill="#55555D"/>
<path d="M122.929 69.8305H113.578V53.7141H122.929V56.514H117.021V60.0526H122.518V62.8526H117.021V67.0085H122.929V69.8305Z" fill="#55555D"/>
</g>
<defs>
<clipPath id="clip0">
<rect width="142.222" height="116" fill="white"/>
</clipPath>
</defs>
</svg>
