<svg width="267" height="89" viewBox="0 0 267 89" fill="none" xmlns="http://www.w3.org/2000/svg">
<g filter="url(#filter0_di)">
<rect x="5" y="1" width="257" height="79" fill="white"/>
<rect x="5" y="1" width="257" height="79" stroke="#55555D" stroke-width="2"/>
</g>
<path d="M122.734 43.6091C122.815 44.8915 123.306 45.8016 124.143 46.3808C125.001 46.9599 126.125 47.2495 127.514 47.2495C128.27 47.2495 129.067 47.1874 129.864 47.0427C130.661 46.8979 131.417 46.7117 132.152 46.4428C132.397 46.8772 132.622 47.3736 132.785 47.9734C132.969 48.5733 133.071 49.2145 133.092 49.8763C131.335 50.5175 129.353 50.8278 127.147 50.8278C125.533 50.8278 124.143 50.621 122.979 50.1866C121.814 49.7522 120.875 49.1731 120.139 48.4078C119.404 47.6632 118.872 46.7531 118.525 45.7189C118.178 44.6847 117.994 43.5471 117.994 42.3061C117.994 41.0857 118.178 39.9481 118.525 38.8932C118.893 37.8384 119.424 36.9076 120.139 36.1216C120.854 35.3356 121.733 34.7151 122.775 34.2601C123.817 33.805 125.042 33.5775 126.432 33.5775C127.657 33.5775 128.72 33.7843 129.68 34.1773C130.62 34.591 131.437 35.1288 132.091 35.832C132.745 36.5353 133.255 37.3626 133.603 38.3348C133.95 39.3069 134.113 40.3411 134.113 41.4373C134.113 41.851 134.093 42.244 134.073 42.637C134.032 43.03 133.991 43.3403 133.95 43.5678H122.734V43.6091ZM129.598 40.4445C129.557 39.431 129.251 38.6037 128.699 37.9831C128.148 37.3626 127.371 37.0524 126.391 37.0524C125.267 37.0524 124.409 37.3419 123.817 37.9418C123.224 38.5416 122.877 39.369 122.775 40.4652H129.598V40.4445Z" fill="#55555D"/>
<path d="M148.374 27.1655C148.782 27.1034 149.171 27.0621 149.579 27.0414C149.967 27.0207 150.356 27 150.744 27C151.132 27 151.52 27.0207 151.929 27.0414C152.337 27.0621 152.746 27.1034 153.155 27.1655V49.9177C152.092 50.2073 151.03 50.4348 149.927 50.6003C148.844 50.7657 147.516 50.8485 145.963 50.8485C144.778 50.8485 143.634 50.7037 142.531 50.3934C141.448 50.0832 140.467 49.5867 139.65 48.9249C138.812 48.263 138.159 47.3943 137.668 46.3187C137.178 45.2638 136.933 43.9607 136.933 42.4301C136.933 41.2098 137.137 40.0722 137.566 38.9966C137.975 37.9211 138.588 36.9903 139.364 36.2043C140.14 35.4183 141.08 34.7978 142.183 34.3428C143.287 33.8877 144.512 33.6602 145.861 33.6602C146.269 33.6602 146.678 33.6809 147.128 33.7016C147.557 33.7429 147.986 33.805 148.394 33.9084V27.1655H148.374ZM148.374 37.3833C147.924 37.2799 147.557 37.2178 147.271 37.1764C146.985 37.1351 146.637 37.1351 146.208 37.1351C145.473 37.1351 144.819 37.2799 144.267 37.5694C143.716 37.859 143.266 38.2313 142.899 38.707C142.531 39.1828 142.265 39.7412 142.102 40.4031C141.938 41.0443 141.857 41.7269 141.857 42.4301C141.857 43.2989 141.979 44.0435 142.204 44.6433C142.429 45.2431 142.735 45.7396 143.123 46.0912C143.511 46.4428 143.981 46.7117 144.533 46.8772C145.064 47.0426 145.657 47.1254 146.29 47.1254C146.678 47.1254 147.025 47.1047 147.332 47.084C147.638 47.0426 147.986 46.9806 148.374 46.8772V37.3833Z" fill="#55555D"/>
<path d="M167.558 47.7252C169.601 47.7666 171.113 48.2009 172.093 49.0076C173.053 49.835 173.544 50.9932 173.544 52.5032C173.544 53.3926 173.299 54.1992 172.808 54.9439C172.318 55.6678 171.644 56.2883 170.786 56.8054C169.928 57.3225 168.927 57.7155 167.742 57.9844C166.577 58.2533 165.31 58.3981 163.962 58.3981C162.614 58.3981 161.47 58.2946 160.509 58.0878C159.569 57.881 158.793 57.6121 158.201 57.2398C157.608 56.8881 157.179 56.4331 156.914 55.8953C156.648 55.3575 156.525 54.7784 156.525 54.1372C156.525 53.1857 156.771 52.3997 157.261 51.7792C157.751 51.1587 158.385 50.6209 159.202 50.1452C158.691 49.8556 158.282 49.4833 157.976 49.049C157.669 48.6146 157.526 48.0561 157.526 47.3736C157.526 46.5669 157.71 45.905 158.058 45.3879C158.425 44.8708 158.957 44.3951 159.651 43.9194C158.854 43.3816 158.262 42.7404 157.833 41.9751C157.404 41.2098 157.2 40.3618 157.2 39.431C157.2 38.6036 157.363 37.8383 157.71 37.1144C158.058 36.4111 158.528 35.7906 159.181 35.2735C159.815 34.7564 160.611 34.3428 161.531 34.0532C162.45 33.7636 163.492 33.5981 164.636 33.5981C165.76 33.5981 166.802 33.7636 167.742 34.0946C168.681 34.4255 169.478 34.8392 170.112 35.3563C170.541 34.8185 171.072 34.4255 171.705 34.1566C172.338 33.8877 173.196 33.7636 174.279 33.7636C174.32 34.0325 174.361 34.3014 174.402 34.5703C174.443 34.8392 174.443 35.1081 174.443 35.4183C174.443 35.7493 174.422 36.1009 174.402 36.4318C174.381 36.7628 174.341 37.1144 174.259 37.4867H171.521C171.644 37.6935 171.725 37.9624 171.828 38.252C171.909 38.5416 171.971 38.9346 171.971 39.431C171.971 40.2583 171.807 41.0236 171.48 41.7476C171.153 42.4508 170.684 43.0713 170.05 43.5884C169.417 44.1055 168.641 44.4985 167.742 44.8088C166.822 45.0984 165.801 45.2638 164.657 45.2638C163.696 45.2638 162.818 45.1604 162.062 44.9743C161.674 45.2018 161.449 45.45 161.347 45.7189C161.265 45.9878 161.204 46.236 161.204 46.4635C161.204 46.7944 161.326 47.084 161.551 47.2908C161.796 47.4977 162.266 47.6218 162.981 47.6425L167.558 47.7252ZM163.227 51.0346C162.736 51.0139 162.328 51.076 162.001 51.2001C161.674 51.3242 161.408 51.4897 161.224 51.6965C161.04 51.9033 160.897 52.1309 160.816 52.3584C160.734 52.6066 160.693 52.8341 160.693 53.0823C160.693 53.889 161.02 54.4268 161.653 54.7163C162.287 55.0059 163.165 55.1507 164.228 55.1507C165.637 55.1507 166.781 54.9439 167.66 54.5095C168.518 54.0751 168.967 53.5167 168.967 52.7927C168.967 52.5859 168.947 52.3791 168.886 52.1929C168.824 52.0068 168.722 51.8206 168.559 51.6758C168.395 51.5103 168.191 51.3862 167.905 51.2828C167.619 51.1794 167.251 51.1174 166.781 51.1174L163.227 51.0346ZM164.616 42.3267C165.556 42.3267 166.25 42.0785 166.659 41.5614C167.067 41.0443 167.292 40.3411 167.292 39.4517C167.292 38.5623 167.088 37.859 166.659 37.3419C166.25 36.8248 165.556 36.5559 164.616 36.5559C163.656 36.5559 162.94 36.8248 162.532 37.3419C162.103 37.859 161.899 38.5623 161.899 39.4517C161.899 40.3411 162.103 41.0443 162.532 41.5614C162.961 42.0785 163.656 42.3267 164.616 42.3267Z" fill="#55555D"/>
<path d="M180.368 43.6091C180.449 44.8915 180.94 45.8016 181.777 46.3808C182.635 46.9599 183.759 47.2495 185.148 47.2495C185.904 47.2495 186.701 47.1874 187.498 47.0427C188.294 46.8979 189.05 46.7117 189.786 46.4428C190.031 46.8772 190.256 47.3736 190.419 47.9734C190.603 48.5733 190.705 49.2145 190.726 49.8763C188.969 50.5175 186.987 50.8278 184.78 50.8278C183.166 50.8278 181.777 50.621 180.613 50.1866C179.448 49.7522 178.508 49.1731 177.773 48.4078C177.037 47.6632 176.506 46.7531 176.159 45.7189C175.812 44.6847 175.628 43.5471 175.628 42.3061C175.628 41.0857 175.812 39.9481 176.159 38.8932C176.527 37.8384 177.058 36.9076 177.773 36.1216C178.488 35.3356 179.366 34.7151 180.408 34.2601C181.45 33.805 182.676 33.5775 184.065 33.5775C185.291 33.5775 186.354 33.7843 187.314 34.1773C188.254 34.591 189.071 35.1288 189.725 35.832C190.378 36.5353 190.889 37.3626 191.236 38.3348C191.584 39.3069 191.747 40.3411 191.747 41.4373C191.747 41.851 191.727 42.244 191.706 42.637C191.665 43.03 191.625 43.3403 191.584 43.5678H180.368V43.6091ZM187.212 40.4445C187.171 39.431 186.864 38.6037 186.313 37.9831C185.761 37.3626 184.985 37.0524 184.004 37.0524C182.88 37.0524 182.022 37.3419 181.43 37.9418C180.837 38.5416 180.49 39.369 180.388 40.4652H187.212V40.4445Z" fill="#55555D"/>
<path d="M195.016 50.29C194.934 49.6902 194.832 49.0697 194.832 48.5112C194.832 47.9527 194.873 47.3322 195.016 46.691C195.649 46.6083 196.324 46.5255 196.896 46.5255C197.529 46.5255 198.142 46.5669 198.816 46.691C198.898 47.3322 199 47.9114 199 48.4698C199 49.0697 198.959 49.6902 198.816 50.29C198.142 50.3727 197.509 50.4555 196.937 50.4555C196.303 50.4141 195.69 50.3727 195.016 50.29Z" fill="#57A0F8"/>
<path d="M90.5969 34.0118C91.1077 33.9084 91.598 33.8464 92.0679 33.8257C92.5378 33.805 92.926 33.7843 93.2324 33.7843C93.6819 33.7843 94.1314 33.805 94.54 33.8257C94.969 33.8464 95.3776 33.9084 95.7658 33.9911L98.5647 46.1739L101.813 33.9911C102.508 33.867 103.284 33.805 104.101 33.805C104.694 33.8257 105.164 33.8464 105.552 33.867C105.94 33.8877 106.267 33.9291 106.573 33.9911L109.74 45.9464L112.519 33.9911C112.907 33.9291 113.254 33.8877 113.601 33.8464C113.949 33.805 114.316 33.805 114.746 33.805C115.052 33.805 115.44 33.8257 115.869 33.8464C116.298 33.867 116.789 33.9291 117.34 34.0325L111.906 50.4762C111.497 50.5382 111.068 50.5796 110.598 50.6003C110.128 50.6209 109.74 50.6416 109.434 50.6416C109.086 50.6416 108.719 50.6209 108.31 50.6003C107.901 50.5796 107.493 50.5175 107.105 50.4348L103.938 39.5344L100.669 50.4762C100.24 50.5382 99.7905 50.5796 99.3411 50.6003C98.8712 50.6209 98.483 50.6416 98.1766 50.6416C97.8701 50.6416 97.5024 50.6209 97.0733 50.6003C96.6647 50.5796 96.2561 50.5175 95.8679 50.4348L90.5969 34.0118Z" fill="#57A0F8"/>
<path d="M93.7432 50.4348C93.2325 50.5382 92.7421 50.6002 92.2723 50.6209C91.8024 50.6416 91.4142 50.6623 91.1077 50.6623C90.6583 50.6623 90.2088 50.6416 89.8002 50.6209C89.3712 50.6002 88.9625 50.5382 88.5744 50.4555L85.7754 38.2934L82.527 50.4761C81.8324 50.6002 81.056 50.6623 80.2388 50.6623C79.6463 50.6416 79.1764 50.6209 78.7883 50.6002C78.4001 50.5796 78.0732 50.5382 77.7668 50.4761L74.6001 38.5209L71.8215 50.4761C71.4334 50.5382 71.0861 50.5796 70.7387 50.6209C70.3914 50.6623 70.0237 50.6623 69.5946 50.6623C69.2882 50.6623 68.9 50.6416 68.471 50.6209C68.0419 50.6002 67.5516 50.5382 67 50.4348L72.4345 33.9911C72.8431 33.9291 73.2721 33.8877 73.742 33.867C74.2119 33.8463 74.6001 33.8257 74.9065 33.8257C75.2538 33.8257 75.6216 33.8463 76.0302 33.867C76.4388 33.8877 76.8474 33.9498 77.2356 34.0325L80.4023 44.9329L83.6711 33.9911C84.1001 33.9291 84.5496 33.8877 84.9991 33.867C85.469 33.8463 85.8571 33.8257 86.1636 33.8257C86.4701 33.8257 86.8378 33.8463 87.2668 33.867C87.6754 33.8877 88.084 33.9498 88.4722 34.0325L93.7432 50.4348Z" fill="#57A0F8"/>
<defs>
<filter id="filter0_di" x="0" y="0" width="267" height="89" filterUnits="userSpaceOnUse" color-interpolation-filters="sRGB">
<feFlood flood-opacity="0" result="BackgroundImageFix"/>
<feColorMatrix in="SourceAlpha" type="matrix" values="0 0 0 0 0 0 0 0 0 0 0 0 0 0 0 0 0 0 127 0"/>
<feOffset dy="4"/>
<feGaussianBlur stdDeviation="2"/>
<feColorMatrix type="matrix" values="0 0 0 0 0 0 0 0 0 0 0 0 0 0 0 0 0 0 0.15 0"/>
<feBlend mode="normal" in2="BackgroundImageFix" result="effect1_dropShadow"/>
<feBlend mode="normal" in="SourceGraphic" in2="effect1_dropShadow" result="shape"/>
<feColorMatrix in="SourceAlpha" type="matrix" values="0 0 0 0 0 0 0 0 0 0 0 0 0 0 0 0 0 0 127 0" result="hardAlpha"/>
<feOffset dy="7"/>
<feComposite in2="hardAlpha" operator="arithmetic" k2="-1" k3="1"/>
<feColorMatrix type="matrix" values="0 0 0 0 0.341176 0 0 0 0 0.627451 0 0 0 0 0.972549 0 0 0 1 0"/>
<feBlend mode="normal" in2="shape" result="effect2_innerShadow"/>
</filter>
</defs>
</svg>
