<svg width="143" height="116" viewBox="0 0 143 116" fill="none" xmlns="http://www.w3.org/2000/svg">
<g clip-path="url(#clip0)">
<path d="M3.74269 1.87097C3.24638 1.87097 2.77039 2.06809 2.41945 2.41896C2.0685 2.76984 1.87135 3.24572 1.87135 3.74194V112.258C1.87135 112.754 2.0685 113.23 2.41945 113.581C2.77039 113.932 3.24638 114.129 3.74269 114.129H138.48C138.976 114.129 139.452 113.932 139.803 113.581C140.154 113.23 140.351 112.754 140.351 112.258V3.74194C140.351 3.24572 140.154 2.76984 139.803 2.41896C139.452 2.06809 138.976 1.87097 138.48 1.87097H3.74269ZM3.74269 0H138.48C139.472 0 140.424 0.394239 141.126 1.09599C141.828 1.79774 142.222 2.74951 142.222 3.74194V112.258C142.222 113.25 141.828 114.202 141.126 114.904C140.424 115.606 139.472 116 138.48 116H3.74269C2.75007 116 1.7981 115.606 1.09621 114.904C0.394318 114.202 0 113.25 0 112.258V3.74194C0 2.74951 0.394318 1.79774 1.09621 1.09599C1.7981 0.394239 2.75007 0 3.74269 0V0Z" fill="#55555D"/>
<path d="M0 22.4516V20.5806H142.222V22.4516H0ZM10.2924 14.9677C8.82152 14.9677 7.48538 13.7647 7.48538 12.1613C7.48538 10.5579 8.68865 9.35483 10.2924 9.35483C11.8961 9.35483 13.0994 10.5579 13.0994 12.1613C13.0994 13.7647 11.8961 14.9677 10.2924 14.9677ZM19.9111 14.9677C18.3055 14.9677 17.1041 13.7647 17.1041 12.1613C17.1041 10.5579 18.3036 9.35483 19.9111 9.35483C21.513 9.35483 22.7181 10.5579 22.7181 12.1613C22.7181 13.7647 21.5111 14.9677 19.9111 14.9677ZM29.5261 14.9677C27.9223 14.9677 26.7191 13.7647 26.7191 12.1613C26.7191 10.5579 27.9223 9.35483 29.5261 9.35483C31.1317 9.35483 32.3331 10.5579 32.3331 12.1613C32.3331 13.7647 31.1317 14.9677 29.5261 14.9677Z" fill="#55555D"/>
<path d="M62.2464 67.0209C62.3181 68.1464 62.7485 68.9451 63.4836 69.4534C64.2367 69.9616 65.2228 70.2158 66.4421 70.2158C67.1055 70.2158 67.8047 70.1613 68.504 70.0343C69.2033 69.9072 69.8667 69.7438 70.5122 69.5078C70.7273 69.889 70.9246 70.3247 71.068 70.8511C71.2294 71.3775 71.319 71.9403 71.3369 72.5212C69.795 73.0839 68.0558 73.3562 66.1193 73.3562C64.7028 73.3562 63.4836 73.1746 62.4616 72.7934C61.4396 72.4122 60.6148 71.904 59.9693 71.2323C59.3238 70.5788 58.8577 69.7801 58.5528 68.8725C58.248 67.9649 58.0867 66.9665 58.0867 65.8773C58.0867 64.8063 58.248 63.8079 58.5528 62.8822C58.8756 61.9564 59.3418 61.1395 59.9693 60.4497C60.5969 59.7599 61.3679 59.2153 62.2823 58.816C63.1967 58.4166 64.2725 58.217 65.4918 58.217C66.5676 58.217 67.4999 58.3985 68.3426 58.7434C69.1674 59.1064 69.8846 59.5784 70.4584 60.1956C71.0321 60.8128 71.4804 61.5389 71.7852 62.392C72.09 63.2452 72.2334 64.1528 72.2334 65.1149C72.2334 65.478 72.2155 65.8229 72.1976 66.1678C72.1617 66.5127 72.1259 66.785 72.09 66.9846H62.2464V67.0209ZM68.2709 64.2436C68.2351 63.3541 67.9661 62.628 67.482 62.0834C66.9979 61.5389 66.3165 61.2666 65.4559 61.2666C64.4698 61.2666 63.7167 61.5207 63.1967 62.0471C62.6768 62.5736 62.3719 63.2997 62.2823 64.2617H68.2709V64.2436Z" fill="#55555D"/>
<path d="M84.7487 52.5897C85.1073 52.5352 85.448 52.4989 85.8066 52.4807C86.1472 52.4626 86.4879 52.4444 86.8286 52.4444C87.1692 52.4444 87.5099 52.4626 87.8685 52.4807C88.2271 52.4989 88.5857 52.5352 88.9443 52.5897V72.5575C88.012 72.8116 87.0796 73.0113 86.1114 73.1565C85.1611 73.3017 83.9956 73.3743 82.6329 73.3743C81.593 73.3743 80.5889 73.2473 79.6207 72.975C78.6704 72.7027 77.8098 72.267 77.0926 71.6861C76.3574 71.1053 75.7837 70.3429 75.3534 69.3989C74.923 68.4731 74.7079 67.3295 74.7079 65.9862C74.7079 64.9152 74.8872 63.9169 75.2637 62.9729C75.6223 62.029 76.1602 61.2121 76.8416 60.5223C77.5229 59.8325 78.3477 59.288 79.3159 58.8886C80.2841 58.4892 81.3599 58.2896 82.5433 58.2896C82.9019 58.2896 83.2605 58.3077 83.655 58.3259C84.0315 58.3622 84.408 58.4166 84.7666 58.5074V52.5897H84.7487ZM84.7487 61.557C84.3542 61.4663 84.0315 61.4118 83.7805 61.3755C83.5294 61.3392 83.2246 61.3392 82.8481 61.3392C82.2026 61.3392 81.6289 61.4663 81.1448 61.7204C80.6607 61.9745 80.2662 62.3013 79.9434 62.7188C79.6207 63.1363 79.3876 63.6264 79.2442 64.2073C79.1007 64.77 79.029 65.3691 79.029 65.9862C79.029 66.7486 79.1366 67.4021 79.3338 67.9286C79.5311 68.455 79.8 68.8906 80.1407 69.1992C80.4814 69.5078 80.8937 69.7438 81.3778 69.889C81.844 70.0343 82.364 70.1069 82.9198 70.1069C83.2605 70.1069 83.5653 70.0887 83.8343 70.0706C84.1032 70.0343 84.408 69.9798 84.7487 69.889V61.557Z" fill="#55555D"/>
<path d="M101.585 70.6333C103.378 70.6696 104.705 71.0508 105.565 71.7587C106.408 72.4848 106.838 73.5014 106.838 74.8265C106.838 75.6071 106.623 76.315 106.193 76.9685C105.763 77.6039 105.171 78.1484 104.418 78.6023C103.665 79.0561 102.786 79.401 101.746 79.6369C100.724 79.8729 99.6126 80 98.4292 80C97.2459 80 96.2418 79.9092 95.3991 79.7277C94.5743 79.5462 93.8929 79.3102 93.373 78.9835C92.853 78.6749 92.4765 78.2755 92.2434 77.8035C92.0103 77.3316 91.9027 76.8233 91.9027 76.2606C91.9027 75.4256 92.1179 74.7358 92.5482 74.1912C92.9785 73.6466 93.5343 73.1746 94.2515 72.7571C93.8033 72.503 93.4447 72.1763 93.1757 71.7951C92.9068 71.4138 92.7813 70.9237 92.7813 70.3247C92.7813 69.6167 92.9427 69.0359 93.2475 68.5821C93.5702 68.1282 94.0364 67.7107 94.646 67.2932C93.9467 66.8213 93.4268 66.2585 93.0502 65.5869C92.6737 64.9152 92.4944 64.171 92.4944 63.3541C92.4944 62.628 92.6378 61.9564 92.9426 61.321C93.2475 60.7038 93.6599 60.1593 94.2336 59.7055C94.7894 59.2516 95.4887 58.8886 96.2956 58.6345C97.1024 58.3803 98.0168 58.2351 99.0209 58.2351C100.007 58.2351 100.922 58.3803 101.746 58.6708C102.571 58.9612 103.27 59.3243 103.826 59.7781C104.203 59.3061 104.669 58.9612 105.225 58.7252C105.781 58.4892 106.534 58.3803 107.484 58.3803C107.52 58.6163 107.556 58.8523 107.591 59.0883C107.627 59.3243 107.627 59.5602 107.627 59.8325C107.627 60.123 107.609 60.4316 107.591 60.722C107.574 61.0124 107.538 61.321 107.466 61.6478H105.063C105.171 61.8293 105.243 62.0653 105.332 62.3194C105.404 62.5736 105.458 62.9185 105.458 63.3541C105.458 64.0802 105.314 64.7519 105.027 65.3872C104.741 66.0044 104.328 66.549 103.772 67.0028C103.217 67.4566 102.535 67.8015 101.746 68.0738C100.939 68.3279 100.043 68.4731 99.0388 68.4731C98.1961 68.4731 97.4251 68.3824 96.7617 68.219C96.4211 68.4187 96.2238 68.6365 96.1342 68.8725C96.0625 69.1085 96.0087 69.3263 96.0087 69.526C96.0087 69.8164 96.1163 70.0706 96.3135 70.2521C96.5286 70.4336 96.941 70.5425 97.5686 70.5607L101.585 70.6333ZM97.7837 73.5377C97.3534 73.5195 96.9948 73.574 96.7079 73.6829C96.4211 73.7918 96.188 73.9371 96.0266 74.1186C95.8652 74.3001 95.7397 74.4998 95.668 74.6995C95.5963 74.9173 95.5604 75.117 95.5604 75.3348C95.5604 76.0427 95.8473 76.5147 96.4031 76.7688C96.959 77.023 97.73 77.1501 98.6623 77.1501C99.8995 77.1501 100.904 76.9685 101.675 76.5873C102.428 76.2061 102.822 75.716 102.822 75.0807C102.822 74.8991 102.804 74.7176 102.75 74.5542C102.697 74.3909 102.607 74.2275 102.463 74.1004C102.32 73.9552 102.141 73.8463 101.89 73.7555C101.639 73.6648 101.316 73.6103 100.904 73.6103L97.7837 73.5377ZM99.003 65.8955C99.8278 65.8955 100.437 65.6776 100.796 65.2238C101.155 64.77 101.352 64.1528 101.352 63.3723C101.352 62.5917 101.173 61.9745 100.796 61.5207C100.437 61.0669 99.8278 60.8309 99.003 60.8309C98.1603 60.8309 97.5327 61.0669 97.1741 61.5207C96.7976 61.9745 96.6183 62.5917 96.6183 63.3723C96.6183 64.1528 96.7976 64.77 97.1741 65.2238C97.5507 65.6776 98.1603 65.8955 99.003 65.8955Z" fill="#55555D"/>
<path d="M112.827 67.0209C112.899 68.1464 113.329 68.9451 114.064 69.4534C114.817 69.9616 115.803 70.2158 117.023 70.2158C117.686 70.2158 118.385 70.1613 119.085 70.0343C119.784 69.9072 120.447 69.7438 121.093 69.5078C121.308 69.889 121.505 70.3247 121.649 70.8511C121.81 71.3775 121.9 71.9403 121.918 72.5212C120.376 73.0839 118.636 73.3562 116.7 73.3562C115.283 73.3562 114.064 73.1746 113.042 72.7934C112.02 72.4122 111.195 71.904 110.55 71.2323C109.904 70.5788 109.438 69.7801 109.133 68.8725C108.829 67.9649 108.667 66.9665 108.667 65.8773C108.667 64.8063 108.829 63.8079 109.133 62.8822C109.456 61.9564 109.922 61.1395 110.55 60.4497C111.177 59.7599 111.948 59.2153 112.863 58.816C113.777 58.4166 114.853 58.217 116.072 58.217C117.148 58.217 118.081 58.3985 118.923 58.7434C119.748 59.1064 120.465 59.5784 121.039 60.1956C121.613 60.8128 122.061 61.5389 122.366 62.392C122.671 63.2452 122.814 64.1528 122.814 65.1149C122.814 65.478 122.796 65.8229 122.778 66.1678C122.742 66.5127 122.706 66.785 122.671 66.9846H112.827V67.0209ZM118.834 64.2436C118.798 63.3541 118.529 62.628 118.045 62.0834C117.561 61.5389 116.879 61.2666 116.019 61.2666C115.032 61.2666 114.279 61.5207 113.759 62.0471C113.239 62.5736 112.935 63.2997 112.845 64.2617H118.834V64.2436Z" fill="#55555D"/>
<path d="M125.683 72.8842C125.611 72.3578 125.521 71.8132 125.521 71.3231C125.521 70.833 125.557 70.2884 125.683 69.7257C126.239 69.6531 126.83 69.5804 127.332 69.5804C127.888 69.5804 128.426 69.6167 129.018 69.7257C129.09 70.2884 129.179 70.7967 129.179 71.2868C129.179 71.8132 129.143 72.3578 129.018 72.8842C128.426 72.9568 127.87 73.0294 127.368 73.0294C126.812 72.9931 126.275 72.9568 125.683 72.8842Z" fill="#57A0F8"/>
<path d="M34.0426 58.5982C34.4909 58.5074 34.9212 58.4529 35.3336 58.4348C35.746 58.4166 36.0866 58.3985 36.3556 58.3985C36.75 58.3985 37.1445 58.4166 37.5031 58.4348C37.8796 58.4529 38.2382 58.5074 38.5789 58.58L41.0353 69.2719L43.8862 58.58C44.4958 58.4711 45.1771 58.4166 45.8943 58.4166C46.4143 58.4348 46.8267 58.4529 47.1674 58.4711C47.508 58.4892 47.7949 58.5255 48.0639 58.58L50.843 69.0722L53.2815 58.58C53.6222 58.5255 53.927 58.4892 54.2318 58.4529C54.5366 58.4166 54.8593 58.4166 55.2359 58.4166C55.5048 58.4166 55.8455 58.4348 56.222 58.4529C56.5986 58.4711 57.0289 58.5255 57.513 58.6163L52.7436 73.0476C52.385 73.102 52.0085 73.1383 51.5961 73.1565C51.1837 73.1747 50.843 73.1928 50.5741 73.1928C50.2693 73.1928 49.9465 73.1747 49.5879 73.1565C49.2293 73.1383 48.8707 73.0839 48.5301 73.0113L45.7509 63.4449L42.8821 73.0476C42.5056 73.102 42.1111 73.1383 41.7166 73.1565C41.3043 73.1747 40.9636 73.1928 40.6946 73.1928C40.4257 73.1928 40.1029 73.1747 39.7264 73.1565C39.3678 73.1383 39.0092 73.0839 38.6685 73.0113L34.0426 58.5982Z" fill="#57A0F8"/>
<path d="M36.8038 73.0113C36.3555 73.102 35.9252 73.1565 35.5128 73.1746C35.1004 73.1928 34.7597 73.2109 34.4908 73.2109C34.0963 73.2109 33.7019 73.1928 33.3433 73.1746C32.9667 73.1565 32.6081 73.102 32.2675 73.0294L29.8111 62.3557L26.9602 73.0476C26.3506 73.1565 25.6692 73.2109 24.952 73.2109C24.4321 73.1928 24.0197 73.1746 23.679 73.1565C23.3383 73.1383 23.0514 73.102 22.7825 73.0476L20.0033 62.5554L17.5649 73.0476C17.2242 73.102 16.9194 73.1383 16.6146 73.1746C16.3098 73.2109 15.987 73.2109 15.6105 73.2109C15.3415 73.2109 15.0009 73.1928 14.6243 73.1746C14.2478 73.1565 13.8175 73.102 13.3334 73.0113L18.1028 58.58C18.4614 58.5255 18.8379 58.4892 19.2503 58.4711C19.6627 58.4529 20.0033 58.4348 20.2723 58.4348C20.5771 58.4348 20.8998 58.4529 21.2584 58.4711C21.617 58.4892 21.9756 58.5437 22.3163 58.6163L25.0955 68.1827L27.9643 58.58C28.3408 58.5255 28.7353 58.4892 29.1297 58.4711C29.5421 58.4529 29.8828 58.4348 30.1517 58.4348C30.4207 58.4348 30.7434 58.4529 31.1199 58.4711C31.4785 58.4892 31.8371 58.5437 32.1778 58.6163L36.8038 73.0113Z" fill="#57A0F8"/>
</g>
<defs>
<clipPath id="clip0">
<rect width="142.222" height="116" fill="white"/>
</clipPath>
</defs>
</svg>
