<svg width="110" height="64" viewBox="0 0 110 64" fill="none" xmlns="http://www.w3.org/2000/svg">
<rect x="1" y="1" width="108" height="62" rx="1" stroke="#55555D" stroke-width="2"/>
<path d="M1.33069 8.44446H109.113" stroke="#55555D" stroke-width="2"/>
<ellipse cx="105.121" cy="4.88888" rx="1.33064" ry="1.33333" fill="#55555D"/>
<ellipse cx="100.686" cy="4.88888" rx="1.33065" ry="1.33333" fill="#55555D"/>
<ellipse cx="96.25" cy="4.88888" rx="1.33064" ry="1.33333" fill="#55555D"/>
<g clip-path="url(#clip0)">
<path d="M49.6525 28.1083C49.8624 28.063 50.0752 28.0324 50.2894 28.0167C50.4962 28.0002 50.7321 27.9929 50.9934 27.9929C51.4361 27.9937 51.8775 28.0404 52.3108 28.1321C52.3685 28.2387 52.4118 28.3526 52.4396 28.4708C52.4771 28.6185 52.5152 28.7778 52.5539 28.9486C52.5921 29.1208 52.6229 29.2874 52.6465 29.4503C52.6701 29.6133 52.69 29.7506 52.7046 29.8586C52.8514 29.5993 53.0215 29.3542 53.2126 29.1262C53.4214 28.8766 53.666 28.66 53.9385 28.4836C54.237 28.291 54.559 28.1383 54.8965 28.0295C55.2776 27.9058 55.6757 27.844 56.076 27.8464C56.7148 27.8395 57.3483 27.9641 57.9377 28.2126C58.5219 28.467 59.0399 28.8542 59.4511 29.3441C59.9114 29.9017 60.2535 30.5485 60.4564 31.2446C60.7131 32.1228 60.8354 33.0353 60.8193 33.9507C60.8332 34.8755 60.6845 35.7954 60.3801 36.6678C60.1094 37.4336 59.6759 38.1304 59.11 38.7093C58.5323 39.2837 57.8384 39.7252 57.0758 40.0037C56.2031 40.3194 55.281 40.4739 54.354 40.4596C54.0909 40.4596 53.8332 40.4468 53.5792 40.4248C53.3251 40.4029 53.1128 40.3736 52.9423 40.3425V45.707C52.6628 45.7532 52.3812 45.7844 52.0985 45.8004C51.8299 45.8169 51.5541 45.8242 51.3019 45.8242C51.0497 45.8242 50.7739 45.8242 50.5035 45.8004C50.2208 45.7842 49.9392 45.753 49.6597 45.707L49.6525 28.1083ZM52.935 37.629C53.4015 37.7598 53.8844 37.8215 54.3685 37.8121C55.3254 37.8121 56.0579 37.5015 56.5659 36.8802C57.074 36.2589 57.3275 35.3178 57.3262 34.0569C57.3294 33.6075 57.2905 33.1587 57.2101 32.7167C57.1476 32.3408 57.0146 31.9803 56.8182 31.6547C56.6416 31.3681 56.3996 31.1282 56.1123 30.9553C55.7985 30.793 55.4519 30.7054 55.0992 30.6994C54.7466 30.6934 54.3973 30.769 54.0782 30.9205C53.8121 31.0642 53.5857 31.2724 53.4195 31.5266C53.2454 31.8008 53.1224 32.1049 53.0566 32.4237C52.9778 32.7845 52.9388 33.1529 52.9404 33.5223L52.935 37.629Z" fill="#55555D"/>
<path d="M63.2925 23.1501C63.8321 23.058 64.3783 23.0108 64.9256 23.0092C65.468 23.011 66.0094 23.0582 66.5442 23.1501V35.3862C66.5372 35.7766 66.5645 36.1669 66.6258 36.5525C66.6594 36.798 66.7461 37.033 66.8799 37.2409C66.9897 37.3999 67.1476 37.5187 67.3299 37.5796C67.5552 37.6475 67.7898 37.679 68.0248 37.673C68.1601 37.6725 68.2952 37.6646 68.4295 37.6492C68.5729 37.6346 68.7153 37.6114 68.8559 37.5796C69.0255 38.187 69.1146 38.8143 69.1208 39.4453V39.784C69.1194 39.8984 69.1042 40.0121 69.0755 40.1227C68.7849 40.2081 68.4863 40.2627 68.1845 40.2857C67.838 40.3168 67.5186 40.3315 67.2264 40.3315C66.0397 40.3315 65.0877 40.0013 64.3703 39.3409C63.653 38.6806 63.2949 37.6034 63.2961 36.1094L63.2925 23.1501Z" fill="#55555D"/>
<path d="M76.8382 32.2608C76.8528 31.9452 76.7905 31.6309 76.6568 31.3453C76.5404 31.1188 76.3647 30.9288 76.1487 30.796C75.9035 30.654 75.6327 30.5625 75.3521 30.5269C75.0034 30.4787 74.6517 30.4554 74.2997 30.4573C73.3927 30.4704 72.4942 30.6363 71.6413 30.948C71.4429 30.584 71.28 30.2014 71.155 29.8055C71.04 29.3884 70.9856 28.9567 70.9935 28.5239C72.2612 28.0905 73.5891 27.8637 74.9275 27.8519C76.5304 27.8519 77.7824 28.2407 78.6836 29.0182C79.5849 29.7958 80.0355 31.0402 80.0355 32.7515V39.7492C79.3895 39.9473 78.7335 40.1105 78.0703 40.2381C77.2097 40.4024 76.3351 40.4809 75.4592 40.4725C74.7323 40.4781 74.0068 40.4075 73.2944 40.2619C72.6915 40.144 72.1178 39.9062 71.6069 39.5625C71.1431 39.2435 70.7682 38.8098 70.5181 38.3028C70.2475 37.7114 70.117 37.0644 70.1371 36.4133C70.1145 35.7544 70.2788 35.1027 70.6107 34.5348C70.9199 34.0376 71.3423 33.6221 71.8428 33.3227C72.3588 33.0133 72.9224 32.7931 73.5103 32.6709C74.1181 32.54 74.7379 32.4737 75.3594 32.4732C75.8058 32.4732 76.2987 32.4964 76.8382 32.5427V32.2608ZM76.8382 34.6629C76.6568 34.6337 76.4536 34.6062 76.2376 34.5824C76.046 34.5603 75.8534 34.5487 75.6606 34.5476C74.9033 34.5476 74.3057 34.6837 73.8678 34.9559C73.4299 35.2281 73.2103 35.6669 73.2091 36.2723C73.1883 36.6034 73.2777 36.9321 73.4632 37.2061C73.6231 37.4163 73.8345 37.5809 74.0765 37.684C74.3193 37.7853 74.5766 37.8471 74.8386 37.8671C75.109 37.8909 75.343 37.9018 75.5445 37.9018C75.7767 37.9024 76.0086 37.8827 76.2376 37.8433L76.8382 37.7389V34.6629Z" fill="#55555D"/>
<path d="M81.5542 28.1321C81.862 28.0616 82.1753 28.0187 82.4905 28.0039C82.7615 27.9966 83.0119 27.9929 83.2417 27.9929C83.5502 27.9929 83.866 27.9929 84.1889 28.0167C84.4852 28.0276 84.7798 28.0663 85.069 28.1321L87.5658 38.6525L90.3857 28.1321C90.9043 28.0381 91.4302 27.9915 91.9571 27.9929C92.1893 27.9929 92.4343 27.9929 92.6974 28.0039C93.0238 28.0211 93.3484 28.064 93.6682 28.1321L89.2062 43.0376C89.0536 43.5538 88.832 44.0465 88.5475 44.5023C88.3326 44.8534 88.048 45.1558 87.7117 45.3905C87.3754 45.6253 86.9946 45.7873 86.5932 45.8664C86.1676 45.9546 85.734 45.9976 85.2995 45.9945C84.909 45.9975 84.5189 45.97 84.1327 45.9121C83.7857 45.8587 83.4422 45.7847 83.1038 45.6906C83.0892 45.6257 83.0813 45.5594 83.0802 45.4928V45.3189C83.078 44.9609 83.1207 44.6041 83.2073 44.257C83.2905 43.9277 83.3947 43.6041 83.5194 43.2884C83.7008 43.346 83.8865 43.3888 84.0746 43.4166C84.3037 43.4552 84.5355 43.4748 84.7678 43.4752C84.9534 43.4754 85.1389 43.4638 85.323 43.4404C85.5181 43.4133 85.7044 43.3413 85.8674 43.2298C86.071 43.0857 86.2407 42.8982 86.3646 42.6806C86.5508 42.352 86.6906 41.9989 86.7801 41.6314L87.1739 40.185C87.0033 40.1997 86.811 40.2125 86.6078 40.2198C86.4045 40.2271 86.1868 40.2308 85.9727 40.2308H85.4864C85.3465 40.2328 85.2069 40.2174 85.0708 40.185L81.5542 28.1321Z" fill="#55555D"/>
<path d="M93.2745 40.4285C93.2049 39.9991 93.1643 39.5654 93.153 39.1304C93.1503 38.6844 93.191 38.2392 93.2745 37.8012C93.7001 37.7309 94.13 37.6899 94.5611 37.6785C95.0025 37.6753 95.4432 37.7164 95.8766 37.8012C95.9462 38.2306 95.9874 38.6643 96 39.0993C96.0048 39.5455 95.9635 39.991 95.8766 40.4285C95.4508 40.4974 95.0211 40.5384 94.5901 40.5512C94.1618 40.5201 93.7354 40.4908 93.2745 40.4285Z" fill="#48BB77"/>
<path d="M30.1497 28.1559C30.4804 28.0816 30.8166 28.035 31.1549 28.0167C31.4707 28.0002 31.7356 27.9929 31.9533 27.9929C32.26 27.9929 32.5612 27.9929 32.8606 28.0167C33.1411 28.0296 33.4199 28.0682 33.6935 28.1321L35.6115 37.0431L37.8307 28.1321C38.3495 28.0353 38.8763 27.9887 39.4039 27.9929C39.8049 28.0076 40.1297 28.024 40.3983 28.0387C40.6314 28.0513 40.8632 28.0826 41.0915 28.1321L43.2689 36.8802L45.1651 28.1321C45.4264 28.0869 45.6732 28.0521 45.9055 28.0277C46.1666 28.0028 46.4289 27.9912 46.6912 27.9929C46.9071 27.9929 47.1648 27.9929 47.466 28.0167C47.8041 28.0372 48.1402 28.0837 48.4713 28.1559L44.7496 40.1923C44.4546 40.2399 44.1571 40.2711 43.8587 40.2857C43.5429 40.3003 43.278 40.3077 43.0621 40.3077C42.8461 40.3077 42.5721 40.3077 42.2873 40.2857C42.011 40.2708 41.7366 40.2316 41.4671 40.1685L39.2896 32.1912L37.0468 40.1923C36.7461 40.2389 36.4433 40.2701 36.1395 40.2857C35.8238 40.3003 35.557 40.3077 35.3429 40.3077C35.1288 40.3077 34.8766 40.3077 34.5917 40.2857C34.3149 40.2708 34.0398 40.2316 33.7697 40.1685L30.1497 28.1559Z" fill="#48BB77"/>
<path d="M32.3089 40.1777C31.9776 40.2526 31.6408 40.2997 31.3018 40.3187C30.9879 40.3333 30.7212 40.3406 30.5052 40.3406C30.1968 40.3406 29.8974 40.3406 29.598 40.3187C29.3175 40.3041 29.0388 40.2649 28.7651 40.2015L26.8525 31.2922L24.6333 40.2033C24.1151 40.3001 23.5889 40.3467 23.0619 40.3425C22.6609 40.3278 22.3361 40.3113 22.0675 40.2967C21.8344 40.2842 21.6026 40.2529 21.3744 40.2033L19.1969 31.457L17.3043 40.2033C17.043 40.2491 16.7962 40.2857 16.5658 40.3077C16.3046 40.3325 16.0424 40.3441 15.7801 40.3425C15.5642 40.3425 15.3047 40.3425 15.0053 40.3205C14.6671 40.2996 14.331 40.2524 14 40.1795L17.7217 28.1431C18.0161 28.0955 18.3129 28.0643 18.6108 28.0497C18.9265 28.035 19.1933 28.0277 19.4092 28.0277C19.6251 28.0277 19.8973 28.0277 20.184 28.0497C20.4603 28.0646 20.7347 28.1038 21.0042 28.1669L23.1762 36.1497L25.419 28.1486C25.7197 28.102 26.0225 28.0709 26.3263 28.0552C26.6439 28.0405 26.9088 28.0332 27.1247 28.0332C27.3407 28.0332 27.5911 28.0332 27.8759 28.0552C28.1522 28.0701 28.4266 28.1093 28.6961 28.1724L32.3089 40.1777Z" fill="#48BB77"/>
</g>
<defs>
<clipPath id="clip0">
<rect width="82" height="23" fill="white" transform="translate(14 23)"/>
</clipPath>
</defs>
</svg>
