<svg width="79" height="91" viewBox="0 0 79 91" fill="none" xmlns="http://www.w3.org/2000/svg">
<rect width="79" height="88.5" transform="translate(0 1)" fill="white"/>
<path d="M0 89.5H7M79 89.5H72M72 89.5V16M72 89.5H47M7 89.5V7H13M7 89.5H31.5M13 7V1H65.5V7M13 7H65.5M65.5 7H72V16M72 16H43M34.5 16H25M19 16H15M31.5 89.5V77.5H39.25M31.5 89.5H39.25M47 89.5V77.5H39.25M47 89.5H39.25M39.25 77.5V89.5M72 25.5H43M34.5 25.5H25M19 25.5H15M72 35H43M34.5 35H25M19 35H15M72 44H43M34.5 44H25M19 44H15" stroke="#55555D" stroke-width="2"/>
</svg>
