<svg width="209" height="63" viewBox="0 0 209 63" fill="none" xmlns="http://www.w3.org/2000/svg">
<path d="M15.8705 48.5754C14.5251 48.5754 13.4659 49.0036 12.6929 49.8601C11.9199 50.7165 11.5333 51.8893 11.5333 53.3784C11.5333 54.9015 11.8978 56.084 12.6268 56.9259C13.3558 57.7677 14.3979 58.1887 15.7531 58.1887C16.6533 58.1887 17.4802 58.0743 18.2336 57.8456V58.5025C17.5242 58.7507 16.6386 58.8748 15.577 58.8748C14.0701 58.8748 12.8837 58.3906 12.0177 57.4222C11.1517 56.4538 10.7188 55.101 10.7188 53.3638C10.7188 52.2786 10.9242 51.3224 11.3352 50.4951C11.7511 49.6678 12.3455 49.0304 13.1185 48.5827C13.8964 48.1301 14.7991 47.9038 15.8265 47.9038C16.8735 47.9038 17.8104 48.0985 18.6372 48.4878L18.3363 49.1593C17.5535 48.77 16.7316 48.5754 15.8705 48.5754Z" fill="black"/>
<path d="M27.0401 54.7507C27.0401 56.0451 26.7245 57.0573 26.0934 57.7872C25.4622 58.5123 24.5914 58.8748 23.4808 58.8748C22.7812 58.8748 22.1647 58.7069 21.6314 58.3711C21.0981 58.0354 20.6896 57.5536 20.4059 56.9259C20.1221 56.2981 19.9802 55.5731 19.9802 54.7507C19.9802 53.4562 20.2958 52.4489 20.9269 51.7287C21.558 51.0036 22.424 50.6411 23.5248 50.6411C24.6207 50.6411 25.4794 51.0085 26.1007 51.7433C26.7269 52.4732 27.0401 53.4757 27.0401 54.7507ZM20.7434 54.7507C20.7434 55.8407 20.9832 56.6923 21.4626 57.3054C21.947 57.9137 22.6295 58.2179 23.5101 58.2179C24.3908 58.2179 25.0708 57.9137 25.5503 57.3054C26.0346 56.6923 26.2768 55.8407 26.2768 54.7507C26.2768 53.6557 26.0322 52.8066 25.543 52.2032C25.0586 51.5998 24.3761 51.298 23.4955 51.298C22.6148 51.298 21.9348 51.5998 21.4553 52.2032C20.9807 52.8017 20.7434 53.6509 20.7434 54.7507Z" fill="black"/>
<path d="M34.8118 58.7288V53.5828C34.8118 52.7847 34.643 52.2056 34.3054 51.8455C33.9678 51.4805 33.4443 51.298 32.7349 51.298C31.7809 51.298 31.0812 51.5389 30.636 52.0207C30.1957 52.4976 29.9755 53.2737 29.9755 54.3492V58.7288H29.249V50.7944H29.8655L30.0049 51.882H30.0489C30.5675 51.0547 31.4898 50.6411 32.8156 50.6411C34.6258 50.6411 35.5309 51.607 35.5309 53.539V58.7288H34.8118Z" fill="black"/>
<path d="M40.2204 58.2325C40.6803 58.2325 41.0815 58.1935 41.4239 58.1157V58.6996C41.0717 58.8164 40.6656 58.8748 40.2057 58.8748C39.5012 58.8748 38.9801 58.6875 38.6426 58.3128C38.3099 57.9381 38.1435 57.3492 38.1435 56.5463V51.4221H36.962V50.9988L38.1435 50.6703L38.5105 48.8746H38.8847V50.7944H41.2258V51.4221H38.8847V56.4441C38.8847 57.0524 38.9924 57.5025 39.2076 57.7945C39.4229 58.0865 39.7605 58.2325 40.2204 58.2325Z" fill="black"/>
<path d="M46.2895 50.6411C46.6271 50.6411 46.9891 50.6752 47.3756 50.7433L47.2362 51.4367C46.9035 51.354 46.5586 51.3126 46.2014 51.3126C45.5214 51.3126 44.9636 51.5998 44.5282 52.174C44.0928 52.7482 43.8751 53.4733 43.8751 54.3492V58.7288H43.1485V50.7944H43.765L43.8384 52.2251H43.8897C44.2175 51.6411 44.5674 51.2323 44.9392 50.9988C45.311 50.7603 45.7611 50.6411 46.2895 50.6411Z" fill="black"/>
<path d="M55.6023 54.7507C55.6023 56.0451 55.2868 57.0573 54.6556 57.7872C54.0245 58.5123 53.1537 58.8748 52.0431 58.8748C51.3434 58.8748 50.727 58.7069 50.1937 58.3711C49.6604 58.0354 49.2519 57.5536 48.9681 56.9259C48.6844 56.2981 48.5425 55.5731 48.5425 54.7507C48.5425 53.4562 48.8581 52.4489 49.4892 51.7287C50.1203 51.0036 50.9863 50.6411 52.0871 50.6411C53.183 50.6411 54.0416 51.0085 54.663 51.7433C55.2892 52.4732 55.6023 53.4757 55.6023 54.7507ZM49.3057 54.7507C49.3057 55.8407 49.5454 56.6923 50.0249 57.3054C50.5093 57.9137 51.1918 58.2179 52.0724 58.2179C52.9531 58.2179 53.6331 57.9137 54.1126 57.3054C54.5969 56.6923 54.8391 55.8407 54.8391 54.7507C54.8391 53.6557 54.5945 52.8066 54.1052 52.2032C53.6209 51.5998 52.9384 51.298 52.0577 51.298C51.1771 51.298 50.497 51.5998 50.0176 52.2032C49.543 52.8017 49.3057 53.6509 49.3057 54.7507Z" fill="black"/>
<path d="M58.5378 58.7288H57.8113V47.371H58.5378V58.7288Z" fill="black"/>
<path d="M69.9642 58.7288L69.7807 57.4733H69.722C69.3208 57.9843 68.9074 58.3468 68.4818 58.5609C68.061 58.7702 67.562 58.8748 66.9847 58.8748C66.2019 58.8748 65.5928 58.6753 65.1573 58.2763C64.7219 57.8772 64.5042 57.3249 64.5042 56.6193C64.5042 55.8456 64.8271 55.2446 65.4729 54.8163C66.1236 54.3881 67.063 54.1618 68.291 54.1375L69.8101 54.0937V53.5682C69.8101 52.8139 69.656 52.2445 69.3478 51.8601C69.0395 51.4757 68.5429 51.2834 67.858 51.2834C67.1192 51.2834 66.3536 51.4878 65.561 51.8966L65.2894 51.2688C66.1652 50.8601 67.0312 50.6557 67.8873 50.6557C68.7631 50.6557 69.4162 50.882 69.8468 51.3345C70.2822 51.7871 70.4999 52.4927 70.4999 53.4514V58.7288H69.9642ZM67.0287 58.2179C67.88 58.2179 68.5503 57.977 69.0395 57.4952C69.5337 57.0086 69.7807 56.3346 69.7807 55.4733V54.6923L68.3864 54.7507C67.266 54.8042 66.4661 54.9794 65.9866 55.2762C65.512 55.5682 65.2748 56.0256 65.2748 56.6485C65.2748 57.1449 65.4264 57.5317 65.7298 57.8091C66.038 58.0816 66.471 58.2179 67.0287 58.2179Z" fill="black"/>
<path d="M78.6532 58.7288V53.5828C78.6532 52.7847 78.4845 52.2056 78.1469 51.8455C77.8093 51.4805 77.2858 51.298 76.5764 51.298C75.6224 51.298 74.9227 51.5389 74.4775 52.0207C74.0372 52.4976 73.817 53.2737 73.817 54.3492V58.7288H73.0905V50.7944H73.7069L73.8464 51.882H73.8904C74.409 51.0547 75.3313 50.6411 76.6571 50.6411C78.4673 50.6411 79.3724 51.607 79.3724 53.539V58.7288H78.6532Z" fill="black"/>
<path d="M84.8765 50.6411C85.4538 50.6411 85.9528 50.7457 86.3736 50.955C86.7943 51.1642 87.171 51.5219 87.5037 52.028H87.5478C87.5184 51.4148 87.5037 50.8138 87.5037 50.225V47.371H88.2229V58.7288H87.7459L87.5624 57.5171H87.5037C86.8971 58.4222 86.0262 58.8748 84.8912 58.8748C83.7903 58.8748 82.9488 58.5342 82.3666 57.8529C81.7844 57.1716 81.4933 56.1789 81.4933 54.8747C81.4933 53.5025 81.782 52.4538 82.3593 51.7287C82.9366 51.0036 83.7757 50.6411 84.8765 50.6411ZM84.8765 51.298C84.0056 51.298 83.35 51.6022 82.9097 52.2105C82.4743 52.8187 82.2566 53.702 82.2566 54.8601C82.2566 57.1084 83.1348 58.2325 84.8912 58.2325C85.7914 58.2325 86.4519 57.9721 86.8726 57.4514C87.2934 56.9307 87.5037 56.0718 87.5037 54.8747V54.7507C87.5037 53.5244 87.2958 52.6436 86.8799 52.1083C86.469 51.5681 85.8011 51.298 84.8765 51.298Z" fill="black"/>
<path d="M99.7154 58.7288L95.7158 48.8746H95.657C95.6962 49.4781 95.7158 50.0961 95.7158 50.7287V58.7288H94.9966V48.0571H96.1561L99.9575 57.4441H100.002L103.803 48.0571H104.933V58.7288H104.177V50.6411C104.177 50.0766 104.207 49.4927 104.265 48.8892H104.207L100.192 58.7288H99.7154Z" fill="black"/>
<path d="M114.385 54.7507C114.385 56.0451 114.07 57.0573 113.439 57.7872C112.808 58.5123 111.937 58.8748 110.826 58.8748C110.127 58.8748 109.51 58.7069 108.977 58.3711C108.444 58.0354 108.035 57.5536 107.751 56.9259C107.467 56.2981 107.326 55.5731 107.326 54.7507C107.326 53.4562 107.641 52.4489 108.272 51.7287C108.903 51.0036 109.769 50.6411 110.87 50.6411C111.966 50.6411 112.825 51.0085 113.446 51.7433C114.072 52.4732 114.385 53.4757 114.385 54.7507ZM108.089 54.7507C108.089 55.8407 108.329 56.6923 108.808 57.3054C109.292 57.9137 109.975 58.2179 110.856 58.2179C111.736 58.2179 112.416 57.9137 112.896 57.3054C113.38 56.6923 113.622 55.8407 113.622 54.7507C113.622 53.6557 113.378 52.8066 112.888 52.2032C112.404 51.5998 111.721 51.298 110.841 51.298C109.96 51.298 109.28 51.5998 108.801 52.2032C108.326 52.8017 108.089 53.6509 108.089 54.7507Z" fill="black"/>
<path d="M122.157 58.7288V53.5828C122.157 52.7847 121.988 52.2056 121.651 51.8455C121.313 51.4805 120.79 51.298 120.08 51.298C119.126 51.298 118.427 51.5389 117.981 52.0207C117.541 52.4976 117.321 53.2737 117.321 54.3492V58.7288H116.594V50.7944H117.211L117.35 51.882H117.394C117.913 51.0547 118.835 50.6411 120.161 50.6411C121.971 50.6411 122.876 51.607 122.876 53.539V58.7288H122.157Z" fill="black"/>
<path d="M126.186 58.7288H125.46V50.7944H126.186V58.7288ZM125.357 48.59C125.357 48.1228 125.511 47.8892 125.819 47.8892C125.971 47.8892 126.088 47.9501 126.171 48.0717C126.259 48.1934 126.304 48.3661 126.304 48.59C126.304 48.809 126.259 48.9817 126.171 49.1082C126.088 49.2347 125.971 49.298 125.819 49.298C125.511 49.298 125.357 49.062 125.357 48.59Z" fill="black"/>
<path d="M130.971 58.2325C131.431 58.2325 131.832 58.1935 132.174 58.1157V58.6996C131.822 58.8164 131.416 58.8748 130.956 58.8748C130.252 58.8748 129.731 58.6875 129.393 58.3128C129.06 57.9381 128.894 57.3492 128.894 56.5463V51.4221H127.713V50.9988L128.894 50.6703L129.261 48.8746H129.635V50.7944H131.976V51.4221H129.635V56.4441C129.635 57.0524 129.743 57.5025 129.958 57.7945C130.173 58.0865 130.511 58.2325 130.971 58.2325Z" fill="black"/>
<path d="M140.497 54.7507C140.497 56.0451 140.181 57.0573 139.55 57.7872C138.919 58.5123 138.048 58.8748 136.937 58.8748C136.238 58.8748 135.621 58.7069 135.088 58.3711C134.555 58.0354 134.146 57.5536 133.862 56.9259C133.579 56.2981 133.437 55.5731 133.437 54.7507C133.437 53.4562 133.752 52.4489 134.383 51.7287C135.015 51.0036 135.881 50.6411 136.981 50.6411C138.077 50.6411 138.936 51.0085 139.557 51.7433C140.183 52.4732 140.497 53.4757 140.497 54.7507ZM134.2 54.7507C134.2 55.8407 134.44 56.6923 134.919 57.3054C135.404 57.9137 136.086 58.2179 136.967 58.2179C137.847 58.2179 138.527 57.9137 139.007 57.3054C139.491 56.6923 139.733 55.8407 139.733 54.7507C139.733 53.6557 139.489 52.8066 138.999 52.2032C138.515 51.5998 137.833 51.298 136.952 51.298C136.071 51.298 135.391 51.5998 134.912 52.2032C134.437 52.8017 134.2 53.6509 134.2 54.7507Z" fill="black"/>
<path d="M145.847 50.6411C146.184 50.6411 146.546 50.6752 146.933 50.7433L146.793 51.4367C146.461 51.354 146.116 51.3126 145.758 51.3126C145.078 51.3126 144.521 51.5998 144.085 52.174C143.65 52.7482 143.432 53.4733 143.432 54.3492V58.7288H142.706V50.7944H143.322L143.395 52.2251H143.447C143.775 51.6411 144.124 51.2323 144.496 50.9988C144.868 50.7603 145.318 50.6411 145.847 50.6411Z" fill="black"/>
<path d="M149.288 58.7288H148.562V50.7944H149.288V58.7288ZM148.459 48.59C148.459 48.1228 148.613 47.8892 148.921 47.8892C149.073 47.8892 149.191 47.9501 149.274 48.0717C149.362 48.1934 149.406 48.3661 149.406 48.59C149.406 48.809 149.362 48.9817 149.274 49.1082C149.191 49.2347 149.073 49.298 148.921 49.298C148.613 49.298 148.459 49.062 148.459 48.59Z" fill="black"/>
<path d="M157.53 58.7288V53.5828C157.53 52.7847 157.361 52.2056 157.023 51.8455C156.686 51.4805 156.162 51.298 155.453 51.298C154.499 51.298 153.799 51.5389 153.354 52.0207C152.914 52.4976 152.694 53.2737 152.694 54.3492V58.7288H151.967V50.7944H152.583L152.723 51.882H152.767C153.286 51.0547 154.208 50.6411 155.534 50.6411C157.344 50.6411 158.249 51.607 158.249 53.539V58.7288H157.53Z" fill="black"/>
<path d="M167.055 50.7944V51.298L165.404 51.4002C165.845 51.9453 166.065 52.5438 166.065 53.1959C166.065 53.9599 165.808 54.5803 165.294 55.0572C164.785 55.5293 164.1 55.7653 163.239 55.7653C162.877 55.7653 162.623 55.7507 162.476 55.7215C162.187 55.8723 161.967 56.0499 161.816 56.2543C161.664 56.4587 161.588 56.6753 161.588 56.904C161.588 57.157 161.683 57.3419 161.874 57.4587C162.07 57.5755 162.395 57.6339 162.85 57.6339H164.245C165.111 57.6339 165.774 57.8091 166.233 58.1595C166.693 58.505 166.923 59.0184 166.923 59.6996C166.923 60.5366 166.581 61.1814 165.896 61.634C165.216 62.0914 164.245 62.3201 162.982 62.3201C161.979 62.3201 161.202 62.1279 160.649 61.7435C160.101 61.359 159.827 60.8237 159.827 60.1376C159.827 59.5926 159.996 59.14 160.333 58.7799C160.676 58.4198 161.138 58.1741 161.72 58.0427C161.48 57.9405 161.287 57.7969 161.14 57.612C160.999 57.4222 160.928 57.2057 160.928 56.9624C160.928 56.4319 161.268 55.9648 161.948 55.5609C161.483 55.3711 161.121 55.0743 160.862 54.6704C160.602 54.2616 160.473 53.7944 160.473 53.2689C160.473 52.4757 160.725 51.8406 161.228 51.3637C161.737 50.882 162.422 50.6411 163.283 50.6411C163.807 50.6411 164.213 50.6922 164.502 50.7944H167.055ZM160.597 60.0719C160.597 61.1619 161.412 61.707 163.041 61.707C165.135 61.707 166.182 61.0427 166.182 59.7142C166.182 59.2373 166.018 58.8918 165.69 58.6777C165.363 58.4636 164.832 58.3566 164.098 58.3566H162.792C161.329 58.3566 160.597 58.9283 160.597 60.0719ZM161.206 53.2689C161.206 53.882 161.392 54.3589 161.764 54.6996C162.141 55.0353 162.642 55.2032 163.269 55.2032C163.934 55.2032 164.443 55.0353 164.795 54.6996C165.152 54.3638 165.331 53.8772 165.331 53.2397C165.331 52.5633 165.147 52.0572 164.78 51.7214C164.418 51.3808 163.91 51.2104 163.254 51.2104C162.618 51.2104 162.116 51.3929 161.75 51.7579C161.387 52.118 161.206 52.6217 161.206 53.2689Z" fill="black"/>
<path d="M188.716 40.4426C188.579 39.4431 188.408 38.409 188.408 37.4784C188.408 36.5478 188.476 35.5137 188.716 34.4452C189.777 34.3074 190.907 34.1695 191.865 34.1695C192.926 34.1695 193.953 34.2384 195.083 34.4452C195.219 35.5137 195.391 36.4788 195.391 37.4095C195.391 38.409 195.322 39.4431 195.083 40.4426C193.953 40.5805 192.892 40.7184 191.933 40.7184C190.872 40.6494 189.846 40.5805 188.716 40.4426Z" fill="#57A0F8"/>
<path d="M39.5339 12.7524C40.3897 12.58 41.2111 12.4766 41.9984 12.4422C42.7857 12.4077 43.436 12.3732 43.9494 12.3732C44.7025 12.3732 45.4555 12.4077 46.1401 12.4422C46.8589 12.4766 47.5434 12.58 48.1938 12.7179L52.8831 33.0194L58.3255 12.7179C59.4892 12.5111 60.7899 12.4077 62.1591 12.4077C63.1517 12.4422 63.9389 12.4766 64.5893 12.5111C65.2396 12.5456 65.7873 12.6145 66.3007 12.7179L71.6062 32.6403L76.2613 12.7179C76.9116 12.6145 77.4935 12.5456 78.0754 12.4766C78.6573 12.4077 79.2734 12.4077 79.9922 12.4077C80.5056 12.4077 81.156 12.4421 81.8748 12.4766C82.5936 12.5111 83.415 12.6145 84.3392 12.7868L75.2344 40.1887C74.5498 40.2921 73.831 40.361 73.0438 40.3955C72.2565 40.43 71.6062 40.4644 71.0927 40.4644C70.5108 40.4644 69.8947 40.43 69.2102 40.3955C68.5256 40.361 67.841 40.2576 67.1907 40.1198L61.8852 21.9552L56.4087 40.1887C55.6899 40.2921 54.9368 40.361 54.1838 40.3955C53.3965 40.43 52.7462 40.4644 52.2328 40.4644C51.7193 40.4644 51.1032 40.43 50.3844 40.3955C49.6998 40.361 49.0153 40.2576 48.3649 40.1198L39.5339 12.7524Z" fill="#57A0F8"/>
<path d="M44.8053 40.1198C43.9496 40.2921 43.1281 40.3955 42.3408 40.43C41.5536 40.4644 40.9032 40.4989 40.3898 40.4989C39.6367 40.4989 38.8837 40.4644 38.1992 40.43C37.4803 40.3955 36.7958 40.2921 36.1454 40.1542L31.4561 19.8872L26.0138 40.1887C24.85 40.3955 23.5493 40.4989 22.1802 40.4989C21.1875 40.4644 20.4003 40.43 19.7499 40.3955C19.0996 40.361 18.5519 40.2921 18.0385 40.1887L12.7331 20.2663L8.07796 40.1887C7.42761 40.2921 6.84573 40.361 6.26384 40.43C5.68195 40.4989 5.06584 40.4989 4.34704 40.4989C3.83361 40.4989 3.18326 40.4644 2.46446 40.43C1.74566 40.3955 0.924173 40.2921 0 40.1198L9.10482 12.7179C9.78939 12.6145 10.5082 12.5456 11.2954 12.5111C12.0827 12.4766 12.733 12.4422 13.2465 12.4422C13.8284 12.4422 14.4445 12.4766 15.1291 12.5111C15.8136 12.5456 16.4982 12.649 17.1485 12.7868L22.454 30.9513L27.9306 12.7179C28.6494 12.6145 29.4024 12.5456 30.1554 12.5111C30.9427 12.4766 31.593 12.4422 32.1065 12.4422C32.6199 12.4422 33.236 12.4766 33.9548 12.5111C34.6394 12.5456 35.3239 12.649 35.9743 12.7868L44.8053 40.1198Z" fill="#57A0F8"/>
<path d="M100.002 17.5832C97.7999 17.5832 96.0952 18.4091 94.8875 20.0608C93.6797 21.7 93.0759 23.99 93.0759 26.9306C93.0759 33.0496 95.3844 36.109 100.002 36.109C101.939 36.109 104.285 35.6273 107.04 34.6638V39.5439C104.776 40.4824 102.247 40.9517 99.4543 40.9517C95.441 40.9517 92.3714 39.7441 90.2452 37.3291C88.1191 34.9015 87.056 31.4228 87.056 26.893C87.056 24.04 87.5781 21.5436 88.6223 19.4039C89.6665 17.2516 91.1636 15.6061 93.1136 14.4674C95.0762 13.3162 97.3722 12.7406 100.002 12.7406C102.681 12.7406 105.373 13.385 108.078 14.6739L106.191 19.4039C105.16 18.9159 104.122 18.4904 103.077 18.1275C102.033 17.7646 101.008 17.5832 100.002 17.5832Z" fill="#55555D"/>
<path d="M137.97 26.818C137.97 31.3603 136.838 34.8515 134.573 37.2915C132.309 39.7316 129.063 40.9517 124.836 40.9517C120.609 40.9517 117.363 39.7316 115.098 37.2915C112.834 34.8515 111.702 31.3478 111.702 26.7804C111.702 22.2131 112.834 18.7282 115.098 16.3256C117.375 13.9106 120.634 12.703 124.873 12.703C129.113 12.703 132.353 13.9168 134.592 16.3444C136.844 18.772 137.97 22.2631 137.97 26.818ZM117.835 26.818C117.835 29.8837 118.42 32.1924 119.59 33.744C120.76 35.2957 122.508 36.0715 124.836 36.0715C129.503 36.0715 131.837 32.987 131.837 26.818C131.837 20.6364 129.516 17.5457 124.873 17.5457C122.546 17.5457 120.791 18.3277 119.608 19.8919C118.426 21.4435 117.835 23.7522 117.835 26.818Z" fill="#55555D"/>
<path d="M149.538 25.3164H151.425C153.274 25.3164 154.639 25.0098 155.52 24.3967C156.401 23.7835 156.841 22.82 156.841 21.5061C156.841 20.2047 156.388 19.2787 155.482 18.7282C154.589 18.1776 153.199 17.9023 151.312 17.9023H149.538V25.3164ZM149.538 30.0464V40.5763H143.688V13.1347H151.727C155.476 13.1347 158.25 13.8167 160.049 15.1807C161.848 16.5321 162.748 18.5905 162.748 21.3559C162.748 22.9701 162.301 24.4092 161.408 25.673C160.514 26.9243 159.25 27.9066 157.615 28.6199C161.766 34.7889 164.471 38.7744 165.729 40.5763H159.238L152.652 30.0464H149.538Z" fill="#55555D"/>
<path d="M185.091 40.5763H169.201V13.1347H185.091V17.9023H175.051V23.9274H184.393V28.695H175.051V35.7712H185.091V40.5763Z" fill="#55555D"/>
</svg>
