<svg width="79" height="91" viewBox="0 0 79 91" fill="none" xmlns="http://www.w3.org/2000/svg">
<path d="M0 89.5H7M79 89.5H73M73 89.5V7H65.5M73 89.5H47H39.25H31.5H7M7 89.5V7H13M13 7V1H65.5V7M13 7H65.5" stroke="#55555D" stroke-width="2"/>
<rect x="13" y="51" width="14" height="13" stroke="#55555D" stroke-width="2"/>
<rect x="33" y="51" width="14" height="13" stroke="#55555D" stroke-width="2"/>
<rect x="53" y="51" width="14" height="13" stroke="#55555D" stroke-width="2"/>
<rect x="13" y="70" width="14" height="13" stroke="#55555D" stroke-width="2"/>
<rect x="33" y="70" width="14" height="13" stroke="#55555D" stroke-width="2"/>
<rect x="53" y="70" width="14" height="13" stroke="#55555D" stroke-width="2"/>
<rect x="13" y="32" width="14" height="13" stroke="#55555D" stroke-width="2"/>
<rect x="33" y="32" width="14" height="13" stroke="#55555D" stroke-width="2"/>
<rect x="53" y="32" width="14" height="13" stroke="#55555D" stroke-width="2"/>
<rect x="13" y="13" width="14" height="13" stroke="#55555D" stroke-width="2"/>
<rect x="33" y="13" width="14" height="13" stroke="#55555D" stroke-width="2"/>
<rect x="53" y="13" width="14" height="13" stroke="#55555D" stroke-width="2"/>
</svg>
