<svg width="267" height="89" viewBox="0 0 267 89" fill="none" xmlns="http://www.w3.org/2000/svg">
<g filter="url(#filter0_di)">
<rect x="5" y="1" width="257" height="79" fill="white"/>
<rect x="5" y="1" width="257" height="79" stroke="#55555D" stroke-width="2"/>
</g>
<path d="M61.2832 57.4912C60.0299 57.4912 59.0433 57.8923 58.3232 58.6943C57.6032 59.4964 57.2432 60.5947 57.2432 61.9893C57.2432 63.4157 57.5827 64.5231 58.2617 65.3115C58.9408 66.0999 59.9115 66.4941 61.1738 66.4941C62.0124 66.4941 62.7826 66.387 63.4844 66.1729V66.7881C62.8236 67.0205 61.9987 67.1367 61.0098 67.1367C59.6061 67.1367 58.501 66.6833 57.6943 65.7764C56.8877 64.8695 56.4844 63.6025 56.4844 61.9756C56.4844 60.9593 56.6758 60.0638 57.0586 59.2891C57.446 58.5143 57.9997 57.9173 58.7197 57.498C59.4443 57.0742 60.2852 56.8623 61.2422 56.8623C62.2174 56.8623 63.0902 57.0446 63.8604 57.4092L63.5801 58.0381C62.8509 57.6735 62.0853 57.4912 61.2832 57.4912ZM71.6875 63.2744C71.6875 64.4867 71.3936 65.4346 70.8057 66.1182C70.2178 66.7972 69.4066 67.1367 68.3721 67.1367C67.7204 67.1367 67.1462 66.9795 66.6494 66.665C66.1527 66.3506 65.7721 65.8994 65.5078 65.3115C65.2435 64.7236 65.1113 64.0446 65.1113 63.2744C65.1113 62.0622 65.4053 61.1188 65.9932 60.4443C66.5811 59.7653 67.3877 59.4258 68.4131 59.4258C69.4339 59.4258 70.2337 59.7699 70.8125 60.458C71.3958 61.1416 71.6875 62.0804 71.6875 63.2744ZM65.8223 63.2744C65.8223 64.2952 66.0456 65.0928 66.4922 65.667C66.9434 66.2367 67.5791 66.5215 68.3994 66.5215C69.2197 66.5215 69.8532 66.2367 70.2998 65.667C70.751 65.0928 70.9766 64.2952 70.9766 63.2744C70.9766 62.249 70.7487 61.4538 70.293 60.8887C69.8418 60.3236 69.2061 60.041 68.3857 60.041C67.5654 60.041 66.932 60.3236 66.4854 60.8887C66.0433 61.4492 65.8223 62.2445 65.8223 63.2744ZM78.9268 67V62.1807C78.9268 61.4333 78.7695 60.891 78.4551 60.5537C78.1406 60.2119 77.653 60.041 76.9922 60.041C76.1035 60.041 75.4518 60.2666 75.0371 60.7178C74.627 61.1644 74.4219 61.8913 74.4219 62.8984V67H73.7451V59.5693H74.3193L74.4492 60.5879H74.4902C74.9733 59.8132 75.8324 59.4258 77.0674 59.4258C78.7536 59.4258 79.5967 60.3304 79.5967 62.1396V67H78.9268ZM83.9648 66.5352C84.3932 66.5352 84.7669 66.4987 85.0859 66.4258V66.9727C84.7578 67.082 84.3796 67.1367 83.9512 67.1367C83.2949 67.1367 82.8096 66.9613 82.4951 66.6104C82.1852 66.2594 82.0303 65.708 82.0303 64.9561V60.1572H80.9297V59.7607L82.0303 59.4531L82.3721 57.7715H82.7207V59.5693H84.9014V60.1572H82.7207V64.8604C82.7207 65.43 82.821 65.8516 83.0215 66.125C83.222 66.3984 83.5365 66.5352 83.9648 66.5352ZM89.6182 59.4258C89.9326 59.4258 90.2699 59.4577 90.6299 59.5215L90.5 60.1709C90.1901 60.0934 89.8688 60.0547 89.5361 60.0547C88.9027 60.0547 88.3831 60.3236 87.9775 60.8613C87.5719 61.3991 87.3691 62.0781 87.3691 62.8984V67H86.6924V59.5693H87.2666L87.335 60.9092H87.3828C87.6882 60.3623 88.014 59.9795 88.3604 59.7607C88.7067 59.5374 89.126 59.4258 89.6182 59.4258ZM98.293 63.2744C98.293 64.4867 97.999 65.4346 97.4111 66.1182C96.8232 66.7972 96.012 67.1367 94.9775 67.1367C94.3258 67.1367 93.7516 66.9795 93.2549 66.665C92.7581 66.3506 92.3776 65.8994 92.1133 65.3115C91.849 64.7236 91.7168 64.0446 91.7168 63.2744C91.7168 62.0622 92.0107 61.1188 92.5986 60.4443C93.1865 59.7653 93.9932 59.4258 95.0186 59.4258C96.0394 59.4258 96.8392 59.7699 97.418 60.458C98.0013 61.1416 98.293 62.0804 98.293 63.2744ZM92.4277 63.2744C92.4277 64.2952 92.651 65.0928 93.0977 65.667C93.5488 66.2367 94.1846 66.5215 95.0049 66.5215C95.8252 66.5215 96.4587 66.2367 96.9053 65.667C97.3564 65.0928 97.582 64.2952 97.582 63.2744C97.582 62.249 97.3542 61.4538 96.8984 60.8887C96.4473 60.3236 95.8115 60.041 94.9912 60.041C94.1709 60.041 93.5374 60.3236 93.0908 60.8887C92.6488 61.4492 92.4277 62.2445 92.4277 63.2744ZM101.027 67H100.351V56.3633H101.027V67ZM111.671 67L111.5 65.8242H111.445C111.072 66.3027 110.687 66.6423 110.29 66.8428C109.898 67.0387 109.433 67.1367 108.896 67.1367C108.166 67.1367 107.599 66.9499 107.193 66.5762C106.788 66.2025 106.585 65.6852 106.585 65.0244C106.585 64.2998 106.886 63.737 107.487 63.3359C108.093 62.9349 108.968 62.723 110.112 62.7002L111.527 62.6592V62.167C111.527 61.4606 111.384 60.9274 111.097 60.5674C110.81 60.2074 110.347 60.0273 109.709 60.0273C109.021 60.0273 108.308 60.2188 107.569 60.6016L107.316 60.0137C108.132 59.6309 108.939 59.4395 109.736 59.4395C110.552 59.4395 111.16 59.6514 111.562 60.0752C111.967 60.499 112.17 61.1598 112.17 62.0576V67H111.671ZM108.937 66.5215C109.729 66.5215 110.354 66.2959 110.81 65.8447C111.27 65.389 111.5 64.7578 111.5 63.9512V63.2197L110.201 63.2744C109.158 63.3245 108.412 63.4886 107.966 63.7666C107.524 64.04 107.303 64.4684 107.303 65.0518C107.303 65.5166 107.444 65.8789 107.727 66.1387C108.014 66.3939 108.417 66.5215 108.937 66.5215ZM119.765 67V62.1807C119.765 61.4333 119.607 60.891 119.293 60.5537C118.979 60.2119 118.491 60.041 117.83 60.041C116.941 60.041 116.29 60.2666 115.875 60.7178C115.465 61.1644 115.26 61.8913 115.26 62.8984V67H114.583V59.5693H115.157L115.287 60.5879H115.328C115.811 59.8132 116.67 59.4258 117.905 59.4258C119.591 59.4258 120.435 60.3304 120.435 62.1396V67H119.765ZM125.562 59.4258C126.099 59.4258 126.564 59.5238 126.956 59.7197C127.348 59.9157 127.699 60.2507 128.009 60.7246H128.05C128.022 60.1504 128.009 59.5876 128.009 59.0361V56.3633H128.679V67H128.234L128.063 65.8652H128.009C127.444 66.7129 126.632 67.1367 125.575 67.1367C124.55 67.1367 123.766 66.8177 123.224 66.1797C122.681 65.5417 122.41 64.612 122.41 63.3906C122.41 62.1055 122.679 61.1234 123.217 60.4443C123.755 59.7653 124.536 59.4258 125.562 59.4258ZM125.562 60.041C124.75 60.041 124.14 60.3258 123.729 60.8955C123.324 61.4652 123.121 62.2923 123.121 63.377C123.121 65.4824 123.939 66.5352 125.575 66.5352C126.414 66.5352 127.029 66.2913 127.421 65.8037C127.813 65.3161 128.009 64.5117 128.009 63.3906V63.2744C128.009 62.126 127.815 61.3011 127.428 60.7998C127.045 60.2939 126.423 60.041 125.562 60.041ZM139.384 67L135.658 57.7715H135.604C135.64 58.3366 135.658 58.9154 135.658 59.5078V67H134.988V57.0059H136.068L139.609 65.7969H139.65L143.191 57.0059H144.244V67H143.54V59.4258C143.54 58.8971 143.567 58.3503 143.622 57.7852H143.567L139.828 67H139.384ZM153.049 63.2744C153.049 64.4867 152.755 65.4346 152.167 66.1182C151.579 66.7972 150.768 67.1367 149.733 67.1367C149.082 67.1367 148.507 66.9795 148.011 66.665C147.514 66.3506 147.133 65.8994 146.869 65.3115C146.605 64.7236 146.473 64.0446 146.473 63.2744C146.473 62.0622 146.767 61.1188 147.354 60.4443C147.942 59.7653 148.749 59.4258 149.774 59.4258C150.795 59.4258 151.595 59.7699 152.174 60.458C152.757 61.1416 153.049 62.0804 153.049 63.2744ZM147.184 63.2744C147.184 64.2952 147.407 65.0928 147.854 65.667C148.305 66.2367 148.94 66.5215 149.761 66.5215C150.581 66.5215 151.215 66.2367 151.661 65.667C152.112 65.0928 152.338 64.2952 152.338 63.2744C152.338 62.249 152.11 61.4538 151.654 60.8887C151.203 60.3236 150.567 60.041 149.747 60.041C148.927 60.041 148.293 60.3236 147.847 60.8887C147.405 61.4492 147.184 62.2445 147.184 63.2744ZM160.288 67V62.1807C160.288 61.4333 160.131 60.891 159.816 60.5537C159.502 60.2119 159.014 60.041 158.354 60.041C157.465 60.041 156.813 60.2666 156.398 60.7178C155.988 61.1644 155.783 61.8913 155.783 62.8984V67H155.106V59.5693H155.681L155.811 60.5879H155.852C156.335 59.8132 157.194 59.4258 158.429 59.4258C160.115 59.4258 160.958 60.3304 160.958 62.1396V67H160.288ZM164.041 67H163.364V59.5693H164.041V67ZM163.269 57.5049C163.269 57.0674 163.412 56.8486 163.699 56.8486C163.84 56.8486 163.95 56.9056 164.027 57.0195C164.109 57.1335 164.15 57.2952 164.15 57.5049C164.15 57.71 164.109 57.8717 164.027 57.9902C163.95 58.1087 163.84 58.168 163.699 58.168C163.412 58.168 163.269 57.9469 163.269 57.5049ZM168.498 66.5352C168.926 66.5352 169.3 66.4987 169.619 66.4258V66.9727C169.291 67.082 168.913 67.1367 168.484 67.1367C167.828 67.1367 167.343 66.9613 167.028 66.6104C166.718 66.2594 166.563 65.708 166.563 64.9561V60.1572H165.463V59.7607L166.563 59.4531L166.905 57.7715H167.254V59.5693H169.435V60.1572H167.254V64.8604C167.254 65.43 167.354 65.8516 167.555 66.125C167.755 66.3984 168.07 66.5352 168.498 66.5352ZM177.371 63.2744C177.371 64.4867 177.077 65.4346 176.489 66.1182C175.901 66.7972 175.09 67.1367 174.056 67.1367C173.404 67.1367 172.83 66.9795 172.333 66.665C171.836 66.3506 171.456 65.8994 171.191 65.3115C170.927 64.7236 170.795 64.0446 170.795 63.2744C170.795 62.0622 171.089 61.1188 171.677 60.4443C172.265 59.7653 173.071 59.4258 174.097 59.4258C175.118 59.4258 175.917 59.7699 176.496 60.458C177.079 61.1416 177.371 62.0804 177.371 63.2744ZM171.506 63.2744C171.506 64.2952 171.729 65.0928 172.176 65.667C172.627 66.2367 173.263 66.5215 174.083 66.5215C174.903 66.5215 175.537 66.2367 175.983 65.667C176.435 65.0928 176.66 64.2952 176.66 63.2744C176.66 62.249 176.432 61.4538 175.977 60.8887C175.525 60.3236 174.89 60.041 174.069 60.041C173.249 60.041 172.616 60.3236 172.169 60.8887C171.727 61.4492 171.506 62.2445 171.506 63.2744ZM182.354 59.4258C182.669 59.4258 183.006 59.4577 183.366 59.5215L183.236 60.1709C182.926 60.0934 182.605 60.0547 182.272 60.0547C181.639 60.0547 181.119 60.3236 180.714 60.8613C180.308 61.3991 180.105 62.0781 180.105 62.8984V67H179.429V59.5693H180.003L180.071 60.9092H180.119C180.424 60.3623 180.75 59.9795 181.097 59.7607C181.443 59.5374 181.862 59.4258 182.354 59.4258ZM185.561 67H184.884V59.5693H185.561V67ZM184.788 57.5049C184.788 57.0674 184.932 56.8486 185.219 56.8486C185.36 56.8486 185.469 56.9056 185.547 57.0195C185.629 57.1335 185.67 57.2952 185.67 57.5049C185.67 57.71 185.629 57.8717 185.547 57.9902C185.469 58.1087 185.36 58.168 185.219 58.168C184.932 58.168 184.788 57.9469 184.788 57.5049ZM193.237 67V62.1807C193.237 61.4333 193.08 60.891 192.766 60.5537C192.451 60.2119 191.964 60.041 191.303 60.041C190.414 60.041 189.762 60.2666 189.348 60.7178C188.938 61.1644 188.732 61.8913 188.732 62.8984V67H188.056V59.5693H188.63L188.76 60.5879H188.801C189.284 59.8132 190.143 59.4258 191.378 59.4258C193.064 59.4258 193.907 60.3304 193.907 62.1396V67H193.237ZM202.11 59.5693V60.041L200.572 60.1367C200.982 60.6471 201.188 61.2077 201.188 61.8184C201.188 62.5339 200.948 63.1149 200.47 63.5615C199.996 64.0036 199.358 64.2246 198.556 64.2246C198.218 64.2246 197.981 64.2109 197.845 64.1836C197.576 64.3249 197.371 64.4912 197.229 64.6826C197.088 64.874 197.018 65.0768 197.018 65.291C197.018 65.528 197.106 65.7012 197.284 65.8105C197.466 65.9199 197.77 65.9746 198.193 65.9746H199.492C200.299 65.9746 200.916 66.1387 201.345 66.4668C201.773 66.7904 201.987 67.2712 201.987 67.9092C201.987 68.693 201.668 69.2969 201.03 69.7207C200.397 70.1491 199.492 70.3633 198.316 70.3633C197.382 70.3633 196.658 70.1833 196.143 69.8232C195.632 69.4632 195.377 68.9619 195.377 68.3193C195.377 67.8089 195.534 67.3851 195.849 67.0479C196.168 66.7106 196.598 66.4805 197.141 66.3574C196.917 66.2617 196.737 66.1273 196.601 65.9541C196.468 65.7764 196.402 65.5736 196.402 65.3457C196.402 64.849 196.719 64.4115 197.353 64.0332C196.92 63.8555 196.582 63.5775 196.341 63.1992C196.099 62.8164 195.979 62.3789 195.979 61.8867C195.979 61.1439 196.213 60.5492 196.683 60.1025C197.157 59.6514 197.795 59.4258 198.597 59.4258C199.084 59.4258 199.463 59.4736 199.731 59.5693H202.11ZM196.095 68.2578C196.095 69.2786 196.854 69.7891 198.371 69.7891C200.322 69.7891 201.297 69.167 201.297 67.9229C201.297 67.4762 201.144 67.1527 200.839 66.9521C200.534 66.7516 200.039 66.6514 199.355 66.6514H198.139C196.776 66.6514 196.095 67.1868 196.095 68.2578ZM196.662 61.8867C196.662 62.4609 196.835 62.9076 197.182 63.2266C197.533 63.541 198 63.6982 198.583 63.6982C199.203 63.6982 199.677 63.541 200.005 63.2266C200.338 62.9121 200.504 62.4564 200.504 61.8594C200.504 61.2259 200.333 60.752 199.991 60.4375C199.654 60.1185 199.18 59.959 198.569 59.959C197.977 59.959 197.51 60.1299 197.168 60.4717C196.831 60.8089 196.662 61.2806 196.662 61.8867Z" fill="black"/>
<path d="M222.287 49.8748C222.159 48.9387 222 47.9704 222 47.0988C222 46.2273 222.064 45.2589 222.287 44.2582C223.275 44.1291 224.327 44 225.22 44C226.209 44 227.165 44.0646 228.217 44.2582C228.345 45.2589 228.504 46.1627 228.504 47.0343C228.504 47.9704 228.44 48.9387 228.217 49.8748C227.165 50.004 226.177 50.1331 225.284 50.1331C224.296 50.0685 223.339 50.004 222.287 49.8748Z" fill="#57A0F8"/>
<path d="M83.3257 23.9427C84.1228 23.7813 84.888 23.6845 85.6213 23.6522C86.3546 23.6199 86.9604 23.5876 87.4387 23.5876C88.1401 23.5876 88.8415 23.6199 89.4792 23.6522C90.1488 23.6845 90.7864 23.7813 91.3922 23.9104L95.7603 42.9229L100.83 23.9104C101.914 23.7167 103.125 23.6199 104.401 23.6199C105.325 23.6522 106.059 23.6845 106.664 23.7167C107.27 23.749 107.78 23.8136 108.259 23.9104L113.201 42.5679L117.537 23.9104C118.143 23.8136 118.685 23.749 119.227 23.6845C119.769 23.6199 120.343 23.6199 121.012 23.6199C121.49 23.6199 122.096 23.6522 122.766 23.6845C123.435 23.7167 124.2 23.8136 125.061 23.975L116.58 49.637C115.943 49.7339 115.273 49.7984 114.54 49.8307C113.806 49.863 113.201 49.8953 112.722 49.8953C112.18 49.8953 111.606 49.863 110.969 49.8307C110.331 49.7984 109.693 49.7016 109.088 49.5725L104.146 32.5613L99.0443 49.637C98.3747 49.7339 97.6733 49.7984 96.9719 49.8307C96.2385 49.863 95.6328 49.8953 95.1545 49.8953C94.6763 49.8953 94.1023 49.863 93.4328 49.8307C92.7951 49.7984 92.1574 49.7016 91.5517 49.5725L83.3257 23.9427Z" fill="#57A0F8"/>
<path d="M88.2356 49.5724C87.4386 49.7338 86.6734 49.8307 85.94 49.863C85.2067 49.8952 84.6009 49.9275 84.1227 49.9275C83.4212 49.9275 82.7198 49.8952 82.0821 49.863C81.4126 49.8307 80.7749 49.7338 80.1691 49.6047L75.801 30.6245L70.7315 49.637C69.6475 49.8307 68.4359 49.9275 67.1606 49.9275C66.236 49.8952 65.5026 49.863 64.8968 49.8307C64.2911 49.7984 63.7809 49.7338 63.3027 49.637L58.3607 30.9796L54.0245 49.637C53.4187 49.7338 52.8767 49.7984 52.3347 49.863C51.7927 49.9275 51.2188 49.9275 50.5492 49.9275C50.071 49.9275 49.4652 49.8952 48.7956 49.863C48.1261 49.8307 47.3609 49.7338 46.5 49.5724L54.981 23.9104C55.6187 23.8136 56.2883 23.749 57.0216 23.7167C57.7549 23.6844 58.3607 23.6522 58.839 23.6522C59.381 23.6522 59.9549 23.6844 60.5926 23.7167C61.2302 23.749 61.8679 23.8458 62.4737 23.975L67.4156 40.9862L72.517 23.9104C73.1866 23.8136 73.888 23.749 74.5895 23.7167C75.3228 23.6844 75.9286 23.6522 76.4068 23.6522C76.8851 23.6522 77.459 23.6844 78.1285 23.7167C78.7662 23.749 79.4039 23.8458 80.0097 23.975L88.2356 49.5724Z" fill="#57A0F8"/>
<path d="M139.65 28.4668C137.6 28.4668 136.012 29.2402 134.887 30.7871C133.762 32.3223 133.199 34.4668 133.199 37.2207C133.199 42.9512 135.35 45.8164 139.65 45.8164C141.455 45.8164 143.641 45.3652 146.207 44.4629V49.0332C144.098 49.9121 141.742 50.3516 139.141 50.3516C135.402 50.3516 132.543 49.2207 130.562 46.959C128.582 44.6855 127.592 41.4277 127.592 37.1855C127.592 34.5137 128.078 32.1758 129.051 30.1719C130.023 28.1562 131.418 26.6152 133.234 25.5488C135.062 24.4707 137.201 23.9316 139.65 23.9316C142.146 23.9316 144.654 24.5352 147.174 25.7422L145.416 30.1719C144.455 29.7148 143.488 29.3164 142.516 28.9766C141.543 28.6367 140.588 28.4668 139.65 28.4668ZM175.018 37.1152C175.018 41.3691 173.963 44.6387 171.854 46.9238C169.744 49.209 166.721 50.3516 162.783 50.3516C158.846 50.3516 155.822 49.209 153.713 46.9238C151.604 44.6387 150.549 41.3574 150.549 37.0801C150.549 32.8027 151.604 29.5391 153.713 27.2891C155.834 25.0273 158.869 23.8965 162.818 23.8965C166.768 23.8965 169.785 25.0332 171.871 27.3066C173.969 29.5801 175.018 32.8496 175.018 37.1152ZM156.262 37.1152C156.262 39.9863 156.807 42.1484 157.896 43.6016C158.986 45.0547 160.615 45.7812 162.783 45.7812C167.131 45.7812 169.305 42.8926 169.305 37.1152C169.305 31.3262 167.143 28.4316 162.818 28.4316C160.65 28.4316 159.016 29.1641 157.914 30.6289C156.812 32.082 156.262 34.2441 156.262 37.1152ZM185.793 35.709H187.551C189.273 35.709 190.545 35.4219 191.365 34.8477C192.186 34.2734 192.596 33.3711 192.596 32.1406C192.596 30.9219 192.174 30.0547 191.33 29.5391C190.498 29.0234 189.203 28.7656 187.445 28.7656H185.793V35.709ZM185.793 40.1387V50H180.344V24.3008H187.832C191.324 24.3008 193.908 24.9395 195.584 26.2168C197.26 27.4824 198.098 29.4102 198.098 32C198.098 33.5117 197.682 34.8594 196.85 36.043C196.018 37.2148 194.84 38.1348 193.316 38.8027C197.184 44.5801 199.703 48.3125 200.875 50H194.828L188.693 40.1387H185.793ZM218.91 50H204.109V24.3008H218.91V28.7656H209.559V34.4082H218.26V38.873H209.559V45.5H218.91V50Z" fill="#55555D"/>
<defs>
<filter id="filter0_di" x="0" y="0" width="267" height="89" filterUnits="userSpaceOnUse" color-interpolation-filters="sRGB">
<feFlood flood-opacity="0" result="BackgroundImageFix"/>
<feColorMatrix in="SourceAlpha" type="matrix" values="0 0 0 0 0 0 0 0 0 0 0 0 0 0 0 0 0 0 127 0"/>
<feOffset dy="4"/>
<feGaussianBlur stdDeviation="2"/>
<feColorMatrix type="matrix" values="0 0 0 0 0 0 0 0 0 0 0 0 0 0 0 0 0 0 0.15 0"/>
<feBlend mode="normal" in2="BackgroundImageFix" result="effect1_dropShadow"/>
<feBlend mode="normal" in="SourceGraphic" in2="effect1_dropShadow" result="shape"/>
<feColorMatrix in="SourceAlpha" type="matrix" values="0 0 0 0 0 0 0 0 0 0 0 0 0 0 0 0 0 0 127 0" result="hardAlpha"/>
<feOffset dy="7"/>
<feComposite in2="hardAlpha" operator="arithmetic" k2="-1" k3="1"/>
<feColorMatrix type="matrix" values="0 0 0 0 0.341176 0 0 0 0 0.627451 0 0 0 0 0.972549 0 0 0 1 0"/>
<feBlend mode="normal" in2="shape" result="effect2_innerShadow"/>
</filter>
</defs>
</svg>
