<svg width="94" height="61" viewBox="0 0 94 61" fill="none" xmlns="http://www.w3.org/2000/svg">
<path d="M19.5143 49.2958V3C19.5143 1.89543 20.4097 1 21.5143 1H87.8619C88.9665 1 89.8619 1.89543 89.8619 3V49.2958M16.1286 49.2958H90.6835C92.1894 49.2958 93.1551 50.8971 92.4524 52.229L91.5533 53.9333C91.2071 54.5894 90.5262 55 89.7844 55H19.5244C18.8185 55 18.1648 54.6279 17.8045 54.0208L15.576 50.2663C15.3218 49.838 15.6305 49.2958 16.1286 49.2958V49.2958Z" stroke="#55555D" stroke-width="2"/>
<mask id="path-2-inside-1" fill="white">
<rect x="22" y="4" width="65" height="43" rx="1"/>
</mask>
<rect x="22" y="4" width="65" height="43" rx="1" stroke="#55555D" stroke-width="4" mask="url(#path-2-inside-1)"/>
<path fill-rule="evenodd" clip-rule="evenodd" d="M80.0545 11.9375H29.9455L29.9455 40.0625H80.0545V11.9375ZM29.9455 11C29.4233 11 29 11.4197 29 11.9375V40.0625C29 40.5803 29.4233 41 29.9455 41H80.0545C80.5767 41 81 40.5803 81 40.0625V11.9375C81 11.4197 80.5767 11 80.0545 11H29.9455Z" fill="#55555D"/>
<path fill-rule="evenodd" clip-rule="evenodd" d="M80.5806 15.4271H29.629V14.4896H80.5806V15.4271Z" fill="#55555D"/>
<path d="M79.3226 13.2917C79.3226 13.6369 79.041 13.9167 78.6936 13.9167C78.3462 13.9167 78.0646 13.6369 78.0646 13.2917C78.0646 12.9465 78.3462 12.6667 78.6936 12.6667C79.041 12.6667 79.3226 12.9465 79.3226 13.2917Z" fill="#55555D"/>
<path d="M77.2258 13.2917C77.2258 13.6369 76.9442 13.9167 76.5968 13.9167C76.2494 13.9167 75.9678 13.6369 75.9678 13.2917C75.9678 12.9465 76.2494 12.6667 76.5968 12.6667C76.9442 12.6667 77.2258 12.9465 77.2258 13.2917Z" fill="#55555D"/>
<path d="M75.129 13.2917C75.129 13.6369 74.8474 13.9167 74.5 13.9167C74.1526 13.9167 73.871 13.6369 73.871 13.2917C73.871 12.9465 74.1526 12.6667 74.5 12.6667C74.8474 12.6667 75.129 12.9465 75.129 13.2917Z" fill="#55555D"/>
<g clip-path="url(#clip0)">
<path d="M52.9132 24.9989C52.9951 24.9812 53.0782 24.9692 53.1618 24.9631C53.2425 24.9566 53.3345 24.9538 53.4365 24.9538C53.6093 24.9541 53.7815 24.9723 53.9506 25.0082C53.9731 25.0499 53.99 25.0945 54.0009 25.1407C54.0155 25.1985 54.0304 25.2609 54.0455 25.3277C54.0604 25.3951 54.0724 25.4603 54.0816 25.524C54.0908 25.5878 54.0986 25.6415 54.1043 25.6838C54.1616 25.5824 54.2279 25.4864 54.3025 25.3972C54.384 25.2995 54.4795 25.2148 54.5858 25.1458C54.7023 25.0704 54.828 25.0107 54.9597 24.9681C55.1084 24.9197 55.2637 24.8955 55.42 24.8964C55.6692 24.8937 55.9165 24.9425 56.1465 25.0397C56.3745 25.1393 56.5766 25.2908 56.7371 25.4825C56.9167 25.7007 57.0502 25.9538 57.1294 26.2262C57.2295 26.5698 57.2773 26.9269 57.271 27.2851C57.2764 27.6469 57.2184 28.0069 57.0996 28.3483C56.994 28.648 56.8248 28.9206 56.6039 29.1471C56.3785 29.3719 56.1077 29.5447 55.8101 29.6536C55.4695 29.7772 55.1097 29.8376 54.7479 29.832C54.6453 29.832 54.5447 29.827 54.4456 29.8184C54.3464 29.8098 54.2636 29.7984 54.197 29.7862V31.8854C54.088 31.9035 53.9781 31.9156 53.8678 31.9219C53.763 31.9284 53.6553 31.9312 53.5569 31.9312C53.4585 31.9312 53.3508 31.9312 53.2453 31.9219C53.135 31.9156 53.0251 31.9034 52.916 31.8854L52.9132 24.9989ZM54.1942 28.7244C54.3763 28.7756 54.5647 28.7997 54.7536 28.7961C55.127 28.7961 55.4129 28.6745 55.6111 28.4314C55.8094 28.1883 55.9083 27.82 55.9079 27.3266C55.9091 27.1508 55.8939 26.9752 55.8625 26.8022C55.8381 26.6551 55.7862 26.5141 55.7096 26.3866C55.6407 26.2745 55.5462 26.1806 55.4341 26.113C55.3116 26.0494 55.1764 26.0152 55.0388 26.0128C54.9012 26.0105 54.7648 26.0401 54.6403 26.0994C54.5365 26.1555 54.4481 26.2371 54.3833 26.3365C54.3153 26.4438 54.2673 26.5628 54.2416 26.6876C54.2109 26.8287 54.1957 26.9729 54.1963 27.1174L54.1942 28.7244Z" fill="#55555D"/>
<path d="M58.2361 23.0587C58.4467 23.0227 58.6598 23.0042 58.8734 23.0036C59.0851 23.0043 59.2964 23.0228 59.505 23.0587V27.8467C59.5023 27.9995 59.513 28.1522 59.5369 28.3031C59.55 28.3992 59.5838 28.4912 59.636 28.5725C59.6789 28.6347 59.7405 28.6812 59.8117 28.7051C59.8996 28.7316 59.9911 28.744 60.0829 28.7416C60.1356 28.7414 60.1883 28.7383 60.2408 28.7323C60.2967 28.7266 60.3523 28.7175 60.4072 28.7051C60.4734 28.9427 60.5081 29.1882 60.5106 29.4351V29.5677C60.51 29.6124 60.5041 29.6569 60.4929 29.7002C60.3795 29.7336 60.2629 29.755 60.1452 29.764C60.0099 29.7761 59.8853 29.7819 59.7713 29.7819C59.3082 29.7819 58.9367 29.6527 58.6567 29.3943C58.3768 29.1359 58.237 28.7144 58.2375 28.1297L58.2361 23.0587Z" fill="#55555D"/>
<path d="M63.5223 26.6238C63.528 26.5003 63.5037 26.3773 63.4515 26.2656C63.406 26.1769 63.3375 26.1026 63.2532 26.0506C63.1575 25.9951 63.0518 25.9593 62.9423 25.9453C62.8062 25.9265 62.669 25.9174 62.5316 25.9181C62.1777 25.9232 61.827 25.9881 61.4942 26.1101C61.4168 25.9677 61.3532 25.8179 61.3044 25.663C61.2596 25.4998 61.2383 25.3309 61.2414 25.1615C61.7361 24.992 62.2543 24.9032 62.7766 24.8986C63.4021 24.8986 63.8907 25.0507 64.2424 25.355C64.5941 25.6592 64.77 26.1462 64.77 26.8158V29.5541C64.5179 29.6316 64.2619 29.6954 64.0031 29.7454C63.6672 29.8097 63.3259 29.8404 62.9841 29.8371C62.7004 29.8393 62.4173 29.8116 62.1393 29.7547C61.904 29.7085 61.6802 29.6155 61.4808 29.481C61.2998 29.3562 61.1535 29.1865 61.0559 28.9881C60.9503 28.7566 60.8993 28.5035 60.9072 28.2487C60.8984 27.9909 60.9625 27.7358 61.092 27.5136C61.2127 27.3191 61.3775 27.1565 61.5728 27.0393C61.7742 26.9183 61.9941 26.8321 62.2236 26.7843C62.4608 26.733 62.7026 26.7071 62.9451 26.7069C63.1193 26.7069 63.3117 26.716 63.5223 26.7341V26.6238ZM63.5223 27.5638C63.4515 27.5523 63.3721 27.5416 63.2879 27.5322C63.2131 27.5236 63.1379 27.5191 63.0627 27.5186C62.7672 27.5186 62.534 27.5719 62.3631 27.6784C62.1922 27.7849 62.1065 27.9566 62.106 28.1935C62.0979 28.3231 62.1328 28.4517 62.2052 28.5589C62.2676 28.6412 62.3501 28.7056 62.4445 28.7459C62.5393 28.7856 62.6397 28.8097 62.7419 28.8176C62.8474 28.8269 62.9388 28.8312 63.0174 28.8312C63.108 28.8314 63.1985 28.8237 63.2879 28.8082L63.5223 28.7674V27.5638Z" fill="#55555D"/>
<path d="M65.3627 25.0082C65.4828 24.9806 65.605 24.9639 65.7281 24.958C65.8338 24.9552 65.9315 24.9537 66.0212 24.9537C66.1416 24.9537 66.2648 24.9537 66.3909 24.9631C66.5065 24.9673 66.6214 24.9824 66.7343 25.0082L67.7087 29.1249L68.8091 25.0082C69.0115 24.9714 69.2167 24.9532 69.4223 24.9537C69.513 24.9537 69.6086 24.9537 69.7112 24.958C69.8386 24.9648 69.9653 24.9816 70.0901 25.0082L68.3488 30.8408C68.2893 31.0428 68.2028 31.2356 68.0918 31.4139C68.0079 31.5513 67.8969 31.6696 67.7656 31.7615C67.6344 31.8534 67.4858 31.9168 67.3291 31.9477C67.163 31.9822 66.9938 31.9991 66.8242 31.9978C66.6719 31.999 66.5196 31.9882 66.3689 31.9656C66.2335 31.9447 66.0994 31.9158 65.9674 31.8789C65.9617 31.8535 65.9586 31.8276 65.9582 31.8015V31.7335C65.9573 31.5934 65.974 31.4538 66.0078 31.3179C66.0402 31.1891 66.0809 31.0625 66.1296 30.9389C66.2004 30.9615 66.2728 30.9782 66.3463 30.9891C66.4356 31.0042 66.5261 31.0119 66.6168 31.012C66.6892 31.0121 66.7616 31.0076 66.8334 30.9984C66.9096 30.9878 66.9823 30.9596 67.0459 30.916C67.1253 30.8596 67.1916 30.7862 67.2399 30.7011C67.3126 30.5725 67.3671 30.4344 67.4021 30.2906L67.5557 29.7246C67.4892 29.7303 67.4141 29.7353 67.3348 29.7382C67.2555 29.741 67.1705 29.7425 67.0869 29.7425H66.8972C66.8426 29.7433 66.7881 29.7372 66.735 29.7246L65.3627 25.0082Z" fill="#55555D"/>
<path d="M69.9364 29.8199C69.9092 29.6518 69.8934 29.4821 69.889 29.3119C69.8879 29.1374 69.9038 28.9631 69.9364 28.7918C70.1025 28.7643 70.2702 28.7482 70.4385 28.7438C70.6107 28.7425 70.7827 28.7586 70.9519 28.7918C70.979 28.9598 70.9951 29.1295 71 29.2997C71.0019 29.4743 70.9858 29.6486 70.9519 29.8199C70.7857 29.8468 70.618 29.8628 70.4498 29.8679C70.2827 29.8557 70.1163 29.8442 69.9364 29.8199Z" fill="#48BB77"/>
<path d="M45.3022 25.0175C45.4313 24.9884 45.5625 24.9702 45.6945 24.9631C45.8178 24.9566 45.9211 24.9537 46.0061 24.9537C46.1258 24.9537 46.2433 24.9537 46.3602 24.9631C46.4696 24.9681 46.5784 24.9832 46.6852 25.0082L47.4337 28.4951L48.2997 25.0082C48.5022 24.9703 48.7078 24.9521 48.9137 24.9537C49.0702 24.9595 49.1969 24.9659 49.3017 24.9717C49.3927 24.9766 49.4831 24.9888 49.5722 25.0082L50.422 28.4314L51.162 25.0082C51.2639 24.9905 51.3602 24.9769 51.4509 24.9674C51.5528 24.9576 51.6551 24.9531 51.7575 24.9537C51.8417 24.9537 51.9423 24.9537 52.0598 24.9631C52.1918 24.9711 52.3229 24.9893 52.4521 25.0175L50.9998 29.7274C50.8846 29.746 50.7686 29.7582 50.6521 29.764C50.5289 29.7697 50.4255 29.7726 50.3412 29.7726C50.257 29.7726 50.15 29.7726 50.0389 29.764C49.9311 29.7581 49.824 29.7428 49.7188 29.7181L48.8691 26.5966L47.9938 29.7274C47.8765 29.7457 47.7583 29.7579 47.6398 29.764C47.5165 29.7697 47.4124 29.7726 47.3289 29.7726C47.2453 29.7726 47.1469 29.7726 47.0357 29.764C46.9277 29.7581 46.8204 29.7428 46.7149 29.7181L45.3022 25.0175Z" fill="#48BB77"/>
<path d="M46.1449 29.7217C46.0157 29.751 45.8842 29.7694 45.7519 29.7768C45.6294 29.7826 45.5253 29.7854 45.4411 29.7854C45.3207 29.7854 45.2039 29.7854 45.087 29.7768C44.9776 29.7712 44.8688 29.7558 44.762 29.731L44.0156 26.2448L43.1496 29.7317C42.9474 29.7696 42.742 29.7878 42.5364 29.7862C42.3799 29.7804 42.2531 29.774 42.1483 29.7683C42.0573 29.7634 41.9669 29.7511 41.8778 29.7317L41.0281 26.3092L40.2895 29.7317C40.1875 29.7496 40.0912 29.764 40.0013 29.7726C39.8994 29.7823 39.797 29.7868 39.6947 29.7862C39.6104 29.7862 39.5091 29.7862 39.3923 29.7776C39.2603 29.7694 39.1292 29.7509 39 29.7224L40.4524 25.0125C40.5673 24.9939 40.6831 24.9817 40.7993 24.9759C40.9225 24.9702 41.0266 24.9673 41.1109 24.9673C41.1952 24.9673 41.3014 24.9673 41.4133 24.9759C41.5211 24.9818 41.6282 24.9971 41.7333 25.0218L42.581 28.1455L43.4562 25.0146C43.5735 24.9964 43.6917 24.9842 43.8103 24.9781C43.9342 24.9724 44.0376 24.9695 44.1218 24.9695C44.2061 24.9695 44.3038 24.9695 44.415 24.9781C44.5228 24.9839 44.6299 24.9993 44.7351 25.0239L46.1449 29.7217Z" fill="#48BB77"/>
</g>
<defs>
<clipPath id="clip0">
<rect width="32" height="9" fill="white" transform="translate(39 23)"/>
</clipPath>
</defs>
</svg>
